<?xml version="1.0" encoding="utf-8" standalone="no"?>
<!DOCTYPE svg PUBLIC "-//W3C//DTD SVG 1.1//EN"
  "http://www.w3.org/Graphics/SVG/1.1/DTD/svg11.dtd">
<svg xmlns:xlink="http://www.w3.org/1999/xlink" width="460.8pt" height="345.6pt" viewBox="0 0 460.8 345.6" xmlns="http://www.w3.org/2000/svg" version="1.1">
 <metadata>
  <rdf:RDF xmlns:dc="http://purl.org/dc/elements/1.1/" xmlns:cc="http://creativecommons.org/ns#" xmlns:rdf="http://www.w3.org/1999/02/22-rdf-syntax-ns#">
   <cc:Work>
    <dc:type rdf:resource="http://purl.org/dc/dcmitype/StillImage"/>
    <dc:date>2022-10-12T19:51:34.410080</dc:date>
    <dc:format>image/svg+xml</dc:format>
    <dc:creator>
     <cc:Agent>
      <dc:title>Matplotlib v3.5.1, https://matplotlib.org/</dc:title>
     </cc:Agent>
    </dc:creator>
   </cc:Work>
  </rdf:RDF>
 </metadata>
 <defs>
  <style type="text/css">*{stroke-linejoin: round; stroke-linecap: butt}</style>
 </defs>
 <g id="figure_1">
  <g id="patch_1">
   <path d="M 0 345.6 
L 460.8 345.6 
L 460.8 0 
L 0 0 
z
" style="fill: #ffffff"/>
  </g>
  <g id="axes_1">
   <g id="patch_2">
    <path d="M 57.6 307.584 
L 414.72 307.584 
L 414.72 41.472 
L 57.6 41.472 
z
" style="fill: #ffffff"/>
   </g>
   <g id="PolyCollection_1">
    <defs>
     <path id="m3cc6cf7514" d="M 73.832727 -292.032 
L 73.832727 -269.376734 
L 80.45833 -167.541501 
L 87.083933 -111.646363 
L 93.709536 -76.288012 
L 100.335139 -61.468425 
L 106.960742 -55.214589 
L 113.586345 -51.27327 
L 120.211948 -51.716565 
L 126.837551 -51.207822 
L 133.463154 -51.128267 
L 140.088757 -50.931012 
L 146.71436 -50.772423 
L 153.339963 -50.680201 
L 159.965566 -50.6238 
L 166.591169 -50.562801 
L 173.216772 -50.510543 
L 179.842375 -50.465214 
L 186.467978 -50.429704 
L 193.093581 -50.400051 
L 199.719184 -50.366534 
L 206.344787 -50.346655 
L 212.97039 -50.323166 
L 219.595993 -50.305572 
L 226.221596 -50.291146 
L 232.847199 -50.274777 
L 239.472801 -50.260885 
L 246.098404 -50.248614 
L 252.724007 -50.237867 
L 259.34961 -50.227011 
L 265.975213 -50.216997 
L 272.600816 -50.207526 
L 279.226419 -50.199822 
L 285.852022 -50.192498 
L 292.477625 -50.184254 
L 299.103228 -50.177127 
L 305.728831 -50.171272 
L 312.354434 -50.164849 
L 318.980037 -50.159383 
L 325.60564 -50.154264 
L 332.231243 -50.148946 
L 338.856846 -50.144568 
L 345.482449 -50.139679 
L 352.108052 -50.135494 
L 358.733655 -50.131651 
L 365.359258 -50.12806 
L 371.984861 -50.124721 
L 378.610464 -50.121218 
L 385.236067 -50.117779 
L 391.86167 -50.114788 
L 398.487273 -50.112 
L 398.487273 -50.124461 
L 398.487273 -50.124461 
L 391.86167 -50.128122 
L 385.236067 -50.131339 
L 378.610464 -50.134998 
L 371.984861 -50.139073 
L 365.359258 -50.143512 
L 358.733655 -50.148516 
L 352.108052 -50.153225 
L 345.482449 -50.158657 
L 338.856846 -50.16385 
L 332.231243 -50.169108 
L 325.60564 -50.174549 
L 318.980037 -50.181532 
L 312.354434 -50.189084 
L 305.728831 -50.195919 
L 299.103228 -50.203688 
L 292.477625 -50.211504 
L 285.852022 -50.221752 
L 279.226419 -50.233058 
L 272.600816 -50.244061 
L 265.975213 -50.254505 
L 259.34961 -50.265913 
L 252.724007 -50.279697 
L 246.098404 -50.29354 
L 239.472801 -50.309852 
L 232.847199 -50.328411 
L 226.221596 -50.349947 
L 219.595993 -50.374328 
L 212.97039 -50.407776 
L 206.344787 -50.431977 
L 199.719184 -50.470498 
L 193.093581 -50.502182 
L 186.467978 -50.549326 
L 179.842375 -50.599247 
L 173.216772 -50.657607 
L 166.591169 -50.738643 
L 159.965566 -50.828795 
L 153.339963 -51.014216 
L 146.71436 -51.210592 
L 140.088757 -51.345903 
L 133.463154 -51.736141 
L 126.837551 -52.845678 
L 120.211948 -53.931498 
L 113.586345 -59.982709 
L 106.960742 -60.338148 
L 100.335139 -94.258236 
L 93.709536 -120.722901 
L 87.083933 -151.856885 
L 80.45833 -213.034726 
L 73.832727 -292.032 
z
" style="stroke: #d62728; stroke-opacity: 0.1"/>
    </defs>
    <g clip-path="url(#p13620d7034)">
     <use xlink:href="#m3cc6cf7514" x="0" y="345.6" style="fill: #d62728; fill-opacity: 0.1; stroke: #d62728; stroke-opacity: 0.1"/>
    </g>
   </g>
   <g id="matplotlib.axis_1">
    <g id="xtick_1">
     <g id="line2d_1">
      <defs>
       <path id="m06f3e16f5f" d="M 0 0 
L 0 3.5 
" style="stroke: #000000; stroke-width: 0.8"/>
      </defs>
      <g>
       <use xlink:href="#m06f3e16f5f" x="73.832727" y="307.584" style="stroke: #000000; stroke-width: 0.8"/>
      </g>
     </g>
     <g id="text_1">
      <!-- 0 -->
      <g transform="translate(69.662024 325.320719)scale(0.15 -0.15)">
       <defs>
        <path id="ArialMT-30" d="M 266 2259 
Q 266 3072 433 3567 
Q 600 4063 929 4331 
Q 1259 4600 1759 4600 
Q 2128 4600 2406 4451 
Q 2684 4303 2865 4023 
Q 3047 3744 3150 3342 
Q 3253 2941 3253 2259 
Q 3253 1453 3087 958 
Q 2922 463 2592 192 
Q 2263 -78 1759 -78 
Q 1097 -78 719 397 
Q 266 969 266 2259 
z
M 844 2259 
Q 844 1131 1108 757 
Q 1372 384 1759 384 
Q 2147 384 2411 759 
Q 2675 1134 2675 2259 
Q 2675 3391 2411 3762 
Q 2147 4134 1753 4134 
Q 1366 4134 1134 3806 
Q 844 3388 844 2259 
z
" transform="scale(0.015625)"/>
       </defs>
       <use xlink:href="#ArialMT-30"/>
      </g>
     </g>
    </g>
    <g id="xtick_2">
     <g id="line2d_2">
      <g>
       <use xlink:href="#m06f3e16f5f" x="138.763636" y="307.584" style="stroke: #000000; stroke-width: 0.8"/>
      </g>
     </g>
     <g id="text_2">
      <!-- 10 -->
      <g transform="translate(130.42223 325.320719)scale(0.15 -0.15)">
       <defs>
        <path id="ArialMT-31" d="M 2384 0 
L 1822 0 
L 1822 3584 
Q 1619 3391 1289 3197 
Q 959 3003 697 2906 
L 697 3450 
Q 1169 3672 1522 3987 
Q 1875 4303 2022 4600 
L 2384 4600 
L 2384 0 
z
" transform="scale(0.015625)"/>
       </defs>
       <use xlink:href="#ArialMT-31"/>
       <use xlink:href="#ArialMT-30" x="55.615234"/>
      </g>
     </g>
    </g>
    <g id="xtick_3">
     <g id="line2d_3">
      <g>
       <use xlink:href="#m06f3e16f5f" x="203.694545" y="307.584" style="stroke: #000000; stroke-width: 0.8"/>
      </g>
     </g>
     <g id="text_3">
      <!-- 20 -->
      <g transform="translate(195.353139 325.320719)scale(0.15 -0.15)">
       <defs>
        <path id="ArialMT-32" d="M 3222 541 
L 3222 0 
L 194 0 
Q 188 203 259 391 
Q 375 700 629 1000 
Q 884 1300 1366 1694 
Q 2113 2306 2375 2664 
Q 2638 3022 2638 3341 
Q 2638 3675 2398 3904 
Q 2159 4134 1775 4134 
Q 1369 4134 1125 3890 
Q 881 3647 878 3216 
L 300 3275 
Q 359 3922 746 4261 
Q 1134 4600 1788 4600 
Q 2447 4600 2831 4234 
Q 3216 3869 3216 3328 
Q 3216 3053 3103 2787 
Q 2991 2522 2730 2228 
Q 2469 1934 1863 1422 
Q 1356 997 1212 845 
Q 1069 694 975 541 
L 3222 541 
z
" transform="scale(0.015625)"/>
       </defs>
       <use xlink:href="#ArialMT-32"/>
       <use xlink:href="#ArialMT-30" x="55.615234"/>
      </g>
     </g>
    </g>
    <g id="xtick_4">
     <g id="line2d_4">
      <g>
       <use xlink:href="#m06f3e16f5f" x="268.625455" y="307.584" style="stroke: #000000; stroke-width: 0.8"/>
      </g>
     </g>
     <g id="text_4">
      <!-- 30 -->
      <g transform="translate(260.284048 325.320719)scale(0.15 -0.15)">
       <defs>
        <path id="ArialMT-33" d="M 269 1209 
L 831 1284 
Q 928 806 1161 595 
Q 1394 384 1728 384 
Q 2125 384 2398 659 
Q 2672 934 2672 1341 
Q 2672 1728 2419 1979 
Q 2166 2231 1775 2231 
Q 1616 2231 1378 2169 
L 1441 2663 
Q 1497 2656 1531 2656 
Q 1891 2656 2178 2843 
Q 2466 3031 2466 3422 
Q 2466 3731 2256 3934 
Q 2047 4138 1716 4138 
Q 1388 4138 1169 3931 
Q 950 3725 888 3313 
L 325 3413 
Q 428 3978 793 4289 
Q 1159 4600 1703 4600 
Q 2078 4600 2393 4439 
Q 2709 4278 2876 4000 
Q 3044 3722 3044 3409 
Q 3044 3113 2884 2869 
Q 2725 2625 2413 2481 
Q 2819 2388 3044 2092 
Q 3269 1797 3269 1353 
Q 3269 753 2831 336 
Q 2394 -81 1725 -81 
Q 1122 -81 723 278 
Q 325 638 269 1209 
z
" transform="scale(0.015625)"/>
       </defs>
       <use xlink:href="#ArialMT-33"/>
       <use xlink:href="#ArialMT-30" x="55.615234"/>
      </g>
     </g>
    </g>
    <g id="xtick_5">
     <g id="line2d_5">
      <g>
       <use xlink:href="#m06f3e16f5f" x="333.556364" y="307.584" style="stroke: #000000; stroke-width: 0.8"/>
      </g>
     </g>
     <g id="text_5">
      <!-- 40 -->
      <g transform="translate(325.214957 325.320719)scale(0.15 -0.15)">
       <defs>
        <path id="ArialMT-34" d="M 2069 0 
L 2069 1097 
L 81 1097 
L 81 1613 
L 2172 4581 
L 2631 4581 
L 2631 1613 
L 3250 1613 
L 3250 1097 
L 2631 1097 
L 2631 0 
L 2069 0 
z
M 2069 1613 
L 2069 3678 
L 634 1613 
L 2069 1613 
z
" transform="scale(0.015625)"/>
       </defs>
       <use xlink:href="#ArialMT-34"/>
       <use xlink:href="#ArialMT-30" x="55.615234"/>
      </g>
     </g>
    </g>
    <g id="xtick_6">
     <g id="line2d_6">
      <g>
       <use xlink:href="#m06f3e16f5f" x="398.487273" y="307.584" style="stroke: #000000; stroke-width: 0.8"/>
      </g>
     </g>
     <g id="text_6">
      <!-- 50 -->
      <g transform="translate(390.145866 325.320719)scale(0.15 -0.15)">
       <defs>
        <path id="ArialMT-35" d="M 266 1200 
L 856 1250 
Q 922 819 1161 601 
Q 1400 384 1738 384 
Q 2144 384 2425 690 
Q 2706 997 2706 1503 
Q 2706 1984 2436 2262 
Q 2166 2541 1728 2541 
Q 1456 2541 1237 2417 
Q 1019 2294 894 2097 
L 366 2166 
L 809 4519 
L 3088 4519 
L 3088 3981 
L 1259 3981 
L 1013 2750 
Q 1425 3038 1878 3038 
Q 2478 3038 2890 2622 
Q 3303 2206 3303 1553 
Q 3303 931 2941 478 
Q 2500 -78 1738 -78 
Q 1113 -78 717 272 
Q 322 622 266 1200 
z
" transform="scale(0.015625)"/>
       </defs>
       <use xlink:href="#ArialMT-35"/>
       <use xlink:href="#ArialMT-30" x="55.615234"/>
      </g>
     </g>
    </g>
    <g id="text_7">
     <!-- Epochs -->
     <g transform="translate(211.145156 343.038687)scale(0.15 -0.15)">
      <defs>
       <path id="ArialMT-45" d="M 506 0 
L 506 4581 
L 3819 4581 
L 3819 4041 
L 1113 4041 
L 1113 2638 
L 3647 2638 
L 3647 2100 
L 1113 2100 
L 1113 541 
L 3925 541 
L 3925 0 
L 506 0 
z
" transform="scale(0.015625)"/>
       <path id="ArialMT-70" d="M 422 -1272 
L 422 3319 
L 934 3319 
L 934 2888 
Q 1116 3141 1344 3267 
Q 1572 3394 1897 3394 
Q 2322 3394 2647 3175 
Q 2972 2956 3137 2557 
Q 3303 2159 3303 1684 
Q 3303 1175 3120 767 
Q 2938 359 2589 142 
Q 2241 -75 1856 -75 
Q 1575 -75 1351 44 
Q 1128 163 984 344 
L 984 -1272 
L 422 -1272 
z
M 931 1641 
Q 931 1000 1190 694 
Q 1450 388 1819 388 
Q 2194 388 2461 705 
Q 2728 1022 2728 1688 
Q 2728 2322 2467 2637 
Q 2206 2953 1844 2953 
Q 1484 2953 1207 2617 
Q 931 2281 931 1641 
z
" transform="scale(0.015625)"/>
       <path id="ArialMT-6f" d="M 213 1659 
Q 213 2581 725 3025 
Q 1153 3394 1769 3394 
Q 2453 3394 2887 2945 
Q 3322 2497 3322 1706 
Q 3322 1066 3130 698 
Q 2938 331 2570 128 
Q 2203 -75 1769 -75 
Q 1072 -75 642 372 
Q 213 819 213 1659 
z
M 791 1659 
Q 791 1022 1069 705 
Q 1347 388 1769 388 
Q 2188 388 2466 706 
Q 2744 1025 2744 1678 
Q 2744 2294 2464 2611 
Q 2184 2928 1769 2928 
Q 1347 2928 1069 2612 
Q 791 2297 791 1659 
z
" transform="scale(0.015625)"/>
       <path id="ArialMT-63" d="M 2588 1216 
L 3141 1144 
Q 3050 572 2676 248 
Q 2303 -75 1759 -75 
Q 1078 -75 664 370 
Q 250 816 250 1647 
Q 250 2184 428 2587 
Q 606 2991 970 3192 
Q 1334 3394 1763 3394 
Q 2303 3394 2647 3120 
Q 2991 2847 3088 2344 
L 2541 2259 
Q 2463 2594 2264 2762 
Q 2066 2931 1784 2931 
Q 1359 2931 1093 2626 
Q 828 2322 828 1663 
Q 828 994 1084 691 
Q 1341 388 1753 388 
Q 2084 388 2306 591 
Q 2528 794 2588 1216 
z
" transform="scale(0.015625)"/>
       <path id="ArialMT-68" d="M 422 0 
L 422 4581 
L 984 4581 
L 984 2938 
Q 1378 3394 1978 3394 
Q 2347 3394 2619 3248 
Q 2891 3103 3008 2847 
Q 3125 2591 3125 2103 
L 3125 0 
L 2563 0 
L 2563 2103 
Q 2563 2525 2380 2717 
Q 2197 2909 1863 2909 
Q 1613 2909 1392 2779 
Q 1172 2650 1078 2428 
Q 984 2206 984 1816 
L 984 0 
L 422 0 
z
" transform="scale(0.015625)"/>
       <path id="ArialMT-73" d="M 197 991 
L 753 1078 
Q 800 744 1014 566 
Q 1228 388 1613 388 
Q 2000 388 2187 545 
Q 2375 703 2375 916 
Q 2375 1106 2209 1216 
Q 2094 1291 1634 1406 
Q 1016 1563 777 1677 
Q 538 1791 414 1992 
Q 291 2194 291 2438 
Q 291 2659 392 2848 
Q 494 3038 669 3163 
Q 800 3259 1026 3326 
Q 1253 3394 1513 3394 
Q 1903 3394 2198 3281 
Q 2494 3169 2634 2976 
Q 2775 2784 2828 2463 
L 2278 2388 
Q 2241 2644 2061 2787 
Q 1881 2931 1553 2931 
Q 1166 2931 1000 2803 
Q 834 2675 834 2503 
Q 834 2394 903 2306 
Q 972 2216 1119 2156 
Q 1203 2125 1616 2013 
Q 2213 1853 2448 1751 
Q 2684 1650 2818 1456 
Q 2953 1263 2953 975 
Q 2953 694 2789 445 
Q 2625 197 2315 61 
Q 2006 -75 1616 -75 
Q 969 -75 630 194 
Q 291 463 197 991 
z
" transform="scale(0.015625)"/>
      </defs>
      <use xlink:href="#ArialMT-45"/>
      <use xlink:href="#ArialMT-70" x="66.699219"/>
      <use xlink:href="#ArialMT-6f" x="122.314453"/>
      <use xlink:href="#ArialMT-63" x="177.929688"/>
      <use xlink:href="#ArialMT-68" x="227.929688"/>
      <use xlink:href="#ArialMT-73" x="283.544922"/>
     </g>
    </g>
   </g>
   <g id="matplotlib.axis_2">
    <g id="ytick_1">
     <g id="line2d_7">
      <defs>
       <path id="mfccf9cc4cb" d="M 0 0 
L -3.5 0 
" style="stroke: #000000; stroke-width: 0.8"/>
      </defs>
      <g>
       <use xlink:href="#mfccf9cc4cb" x="57.6" y="295.610013" style="stroke: #000000; stroke-width: 0.8"/>
      </g>
     </g>
     <g id="text_8">
      <!-- 0.0 -->
      <g style="fill: #d62728" transform="translate(29.75 300.978372)scale(0.15 -0.15)">
       <defs>
        <path id="ArialMT-2e" d="M 581 0 
L 581 641 
L 1222 641 
L 1222 0 
L 581 0 
z
" transform="scale(0.015625)"/>
       </defs>
       <use xlink:href="#ArialMT-30"/>
       <use xlink:href="#ArialMT-2e" x="55.615234"/>
       <use xlink:href="#ArialMT-30" x="83.398438"/>
      </g>
     </g>
    </g>
    <g id="ytick_2">
     <g id="line2d_8">
      <g>
       <use xlink:href="#mfccf9cc4cb" x="57.6" y="236.454878" style="stroke: #000000; stroke-width: 0.8"/>
      </g>
     </g>
     <g id="text_9">
      <!-- 0.5 -->
      <g style="fill: #d62728" transform="translate(29.75 241.823237)scale(0.15 -0.15)">
       <use xlink:href="#ArialMT-30"/>
       <use xlink:href="#ArialMT-2e" x="55.615234"/>
       <use xlink:href="#ArialMT-35" x="83.398438"/>
      </g>
     </g>
    </g>
    <g id="ytick_3">
     <g id="line2d_9">
      <g>
       <use xlink:href="#mfccf9cc4cb" x="57.6" y="177.299743" style="stroke: #000000; stroke-width: 0.8"/>
      </g>
     </g>
     <g id="text_10">
      <!-- 1.0 -->
      <g style="fill: #d62728" transform="translate(29.75 182.668102)scale(0.15 -0.15)">
       <use xlink:href="#ArialMT-31"/>
       <use xlink:href="#ArialMT-2e" x="55.615234"/>
       <use xlink:href="#ArialMT-30" x="83.398438"/>
      </g>
     </g>
    </g>
    <g id="ytick_4">
     <g id="line2d_10">
      <g>
       <use xlink:href="#mfccf9cc4cb" x="57.6" y="118.144608" style="stroke: #000000; stroke-width: 0.8"/>
      </g>
     </g>
     <g id="text_11">
      <!-- 1.5 -->
      <g style="fill: #d62728" transform="translate(29.75 123.512967)scale(0.15 -0.15)">
       <use xlink:href="#ArialMT-31"/>
       <use xlink:href="#ArialMT-2e" x="55.615234"/>
       <use xlink:href="#ArialMT-35" x="83.398438"/>
      </g>
     </g>
    </g>
    <g id="ytick_5">
     <g id="line2d_11">
      <g>
       <use xlink:href="#mfccf9cc4cb" x="57.6" y="58.989473" style="stroke: #000000; stroke-width: 0.8"/>
      </g>
     </g>
     <g id="text_12">
      <!-- 2.0 -->
      <g style="fill: #d62728" transform="translate(29.75 64.357833)scale(0.15 -0.15)">
       <use xlink:href="#ArialMT-32"/>
       <use xlink:href="#ArialMT-2e" x="55.615234"/>
       <use xlink:href="#ArialMT-30" x="83.398438"/>
      </g>
     </g>
    </g>
    <g id="text_13">
     <!-- Loss -->
     <g style="fill: #d62728" transform="translate(22.76875 190.369406)rotate(-90)scale(0.15 -0.15)">
      <defs>
       <path id="ArialMT-4c" d="M 469 0 
L 469 4581 
L 1075 4581 
L 1075 541 
L 3331 541 
L 3331 0 
L 469 0 
z
" transform="scale(0.015625)"/>
      </defs>
      <use xlink:href="#ArialMT-4c"/>
      <use xlink:href="#ArialMT-6f" x="55.615234"/>
      <use xlink:href="#ArialMT-73" x="111.230469"/>
      <use xlink:href="#ArialMT-73" x="161.230469"/>
     </g>
    </g>
   </g>
   <g id="LineCollection_1">
    <path d="M 73.832727 76.223266 
L 73.832727 53.568 
" clip-path="url(#p13620d7034)" style="fill: none; stroke: #d62728; stroke-width: 1.5"/>
    <path d="M 80.45833 178.058499 
L 80.45833 132.565274 
" clip-path="url(#p13620d7034)" style="fill: none; stroke: #d62728; stroke-width: 1.5"/>
    <path d="M 87.083933 233.953637 
L 87.083933 193.743115 
" clip-path="url(#p13620d7034)" style="fill: none; stroke: #d62728; stroke-width: 1.5"/>
    <path d="M 93.709536 269.311988 
L 93.709536 224.877099 
" clip-path="url(#p13620d7034)" style="fill: none; stroke: #d62728; stroke-width: 1.5"/>
    <path d="M 100.335139 284.131575 
L 100.335139 251.341764 
" clip-path="url(#p13620d7034)" style="fill: none; stroke: #d62728; stroke-width: 1.5"/>
    <path d="M 106.960742 290.385411 
L 106.960742 285.261852 
" clip-path="url(#p13620d7034)" style="fill: none; stroke: #d62728; stroke-width: 1.5"/>
    <path d="M 113.586345 294.32673 
L 113.586345 285.617291 
" clip-path="url(#p13620d7034)" style="fill: none; stroke: #d62728; stroke-width: 1.5"/>
    <path d="M 120.211948 293.883435 
L 120.211948 291.668502 
" clip-path="url(#p13620d7034)" style="fill: none; stroke: #d62728; stroke-width: 1.5"/>
    <path d="M 126.837551 294.392178 
L 126.837551 292.754322 
" clip-path="url(#p13620d7034)" style="fill: none; stroke: #d62728; stroke-width: 1.5"/>
    <path d="M 133.463154 294.471733 
L 133.463154 293.863859 
" clip-path="url(#p13620d7034)" style="fill: none; stroke: #d62728; stroke-width: 1.5"/>
    <path d="M 140.088757 294.668988 
L 140.088757 294.254097 
" clip-path="url(#p13620d7034)" style="fill: none; stroke: #d62728; stroke-width: 1.5"/>
    <path d="M 146.71436 294.827577 
L 146.71436 294.389408 
" clip-path="url(#p13620d7034)" style="fill: none; stroke: #d62728; stroke-width: 1.5"/>
    <path d="M 153.339963 294.919799 
L 153.339963 294.585784 
" clip-path="url(#p13620d7034)" style="fill: none; stroke: #d62728; stroke-width: 1.5"/>
    <path d="M 159.965566 294.9762 
L 159.965566 294.771205 
" clip-path="url(#p13620d7034)" style="fill: none; stroke: #d62728; stroke-width: 1.5"/>
    <path d="M 166.591169 295.037199 
L 166.591169 294.861357 
" clip-path="url(#p13620d7034)" style="fill: none; stroke: #d62728; stroke-width: 1.5"/>
    <path d="M 173.216772 295.089457 
L 173.216772 294.942393 
" clip-path="url(#p13620d7034)" style="fill: none; stroke: #d62728; stroke-width: 1.5"/>
    <path d="M 179.842375 295.134786 
L 179.842375 295.000753 
" clip-path="url(#p13620d7034)" style="fill: none; stroke: #d62728; stroke-width: 1.5"/>
    <path d="M 186.467978 295.170296 
L 186.467978 295.050674 
" clip-path="url(#p13620d7034)" style="fill: none; stroke: #d62728; stroke-width: 1.5"/>
    <path d="M 193.093581 295.199949 
L 193.093581 295.097818 
" clip-path="url(#p13620d7034)" style="fill: none; stroke: #d62728; stroke-width: 1.5"/>
    <path d="M 199.719184 295.233466 
L 199.719184 295.129502 
" clip-path="url(#p13620d7034)" style="fill: none; stroke: #d62728; stroke-width: 1.5"/>
    <path d="M 206.344787 295.253345 
L 206.344787 295.168023 
" clip-path="url(#p13620d7034)" style="fill: none; stroke: #d62728; stroke-width: 1.5"/>
    <path d="M 212.97039 295.276834 
L 212.97039 295.192224 
" clip-path="url(#p13620d7034)" style="fill: none; stroke: #d62728; stroke-width: 1.5"/>
    <path d="M 219.595993 295.294428 
L 219.595993 295.225672 
" clip-path="url(#p13620d7034)" style="fill: none; stroke: #d62728; stroke-width: 1.5"/>
    <path d="M 226.221596 295.308854 
L 226.221596 295.250053 
" clip-path="url(#p13620d7034)" style="fill: none; stroke: #d62728; stroke-width: 1.5"/>
    <path d="M 232.847199 295.325223 
L 232.847199 295.271589 
" clip-path="url(#p13620d7034)" style="fill: none; stroke: #d62728; stroke-width: 1.5"/>
    <path d="M 239.472801 295.339115 
L 239.472801 295.290148 
" clip-path="url(#p13620d7034)" style="fill: none; stroke: #d62728; stroke-width: 1.5"/>
    <path d="M 246.098404 295.351386 
L 246.098404 295.30646 
" clip-path="url(#p13620d7034)" style="fill: none; stroke: #d62728; stroke-width: 1.5"/>
    <path d="M 252.724007 295.362133 
L 252.724007 295.320303 
" clip-path="url(#p13620d7034)" style="fill: none; stroke: #d62728; stroke-width: 1.5"/>
    <path d="M 259.34961 295.372989 
L 259.34961 295.334087 
" clip-path="url(#p13620d7034)" style="fill: none; stroke: #d62728; stroke-width: 1.5"/>
    <path d="M 265.975213 295.383003 
L 265.975213 295.345495 
" clip-path="url(#p13620d7034)" style="fill: none; stroke: #d62728; stroke-width: 1.5"/>
    <path d="M 272.600816 295.392474 
L 272.600816 295.355939 
" clip-path="url(#p13620d7034)" style="fill: none; stroke: #d62728; stroke-width: 1.5"/>
    <path d="M 279.226419 295.400178 
L 279.226419 295.366942 
" clip-path="url(#p13620d7034)" style="fill: none; stroke: #d62728; stroke-width: 1.5"/>
    <path d="M 285.852022 295.407502 
L 285.852022 295.378248 
" clip-path="url(#p13620d7034)" style="fill: none; stroke: #d62728; stroke-width: 1.5"/>
    <path d="M 292.477625 295.415746 
L 292.477625 295.388496 
" clip-path="url(#p13620d7034)" style="fill: none; stroke: #d62728; stroke-width: 1.5"/>
    <path d="M 299.103228 295.422873 
L 299.103228 295.396312 
" clip-path="url(#p13620d7034)" style="fill: none; stroke: #d62728; stroke-width: 1.5"/>
    <path d="M 305.728831 295.428728 
L 305.728831 295.404081 
" clip-path="url(#p13620d7034)" style="fill: none; stroke: #d62728; stroke-width: 1.5"/>
    <path d="M 312.354434 295.435151 
L 312.354434 295.410916 
" clip-path="url(#p13620d7034)" style="fill: none; stroke: #d62728; stroke-width: 1.5"/>
    <path d="M 318.980037 295.440617 
L 318.980037 295.418468 
" clip-path="url(#p13620d7034)" style="fill: none; stroke: #d62728; stroke-width: 1.5"/>
    <path d="M 325.60564 295.445736 
L 325.60564 295.425451 
" clip-path="url(#p13620d7034)" style="fill: none; stroke: #d62728; stroke-width: 1.5"/>
    <path d="M 332.231243 295.451054 
L 332.231243 295.430892 
" clip-path="url(#p13620d7034)" style="fill: none; stroke: #d62728; stroke-width: 1.5"/>
    <path d="M 338.856846 295.455432 
L 338.856846 295.43615 
" clip-path="url(#p13620d7034)" style="fill: none; stroke: #d62728; stroke-width: 1.5"/>
    <path d="M 345.482449 295.460321 
L 345.482449 295.441343 
" clip-path="url(#p13620d7034)" style="fill: none; stroke: #d62728; stroke-width: 1.5"/>
    <path d="M 352.108052 295.464506 
L 352.108052 295.446775 
" clip-path="url(#p13620d7034)" style="fill: none; stroke: #d62728; stroke-width: 1.5"/>
    <path d="M 358.733655 295.468349 
L 358.733655 295.451484 
" clip-path="url(#p13620d7034)" style="fill: none; stroke: #d62728; stroke-width: 1.5"/>
    <path d="M 365.359258 295.47194 
L 365.359258 295.456488 
" clip-path="url(#p13620d7034)" style="fill: none; stroke: #d62728; stroke-width: 1.5"/>
    <path d="M 371.984861 295.475279 
L 371.984861 295.460927 
" clip-path="url(#p13620d7034)" style="fill: none; stroke: #d62728; stroke-width: 1.5"/>
    <path d="M 378.610464 295.478782 
L 378.610464 295.465002 
" clip-path="url(#p13620d7034)" style="fill: none; stroke: #d62728; stroke-width: 1.5"/>
    <path d="M 385.236067 295.482221 
L 385.236067 295.468661 
" clip-path="url(#p13620d7034)" style="fill: none; stroke: #d62728; stroke-width: 1.5"/>
    <path d="M 391.86167 295.485212 
L 391.86167 295.471878 
" clip-path="url(#p13620d7034)" style="fill: none; stroke: #d62728; stroke-width: 1.5"/>
    <path d="M 398.487273 295.488 
L 398.487273 295.475539 
" clip-path="url(#p13620d7034)" style="fill: none; stroke: #d62728; stroke-width: 1.5"/>
   </g>
   <g id="line2d_12">
    <defs>
     <path id="m6b9366e065" d="M 2 0 
L -2 -0 
" style="stroke: #d62728"/>
    </defs>
    <g clip-path="url(#p13620d7034)">
     <use xlink:href="#m6b9366e065" x="73.832727" y="76.223266" style="fill: #d62728; stroke: #d62728"/>
     <use xlink:href="#m6b9366e065" x="80.45833" y="178.058499" style="fill: #d62728; stroke: #d62728"/>
     <use xlink:href="#m6b9366e065" x="87.083933" y="233.953637" style="fill: #d62728; stroke: #d62728"/>
     <use xlink:href="#m6b9366e065" x="93.709536" y="269.311988" style="fill: #d62728; stroke: #d62728"/>
     <use xlink:href="#m6b9366e065" x="100.335139" y="284.131575" style="fill: #d62728; stroke: #d62728"/>
     <use xlink:href="#m6b9366e065" x="106.960742" y="290.385411" style="fill: #d62728; stroke: #d62728"/>
     <use xlink:href="#m6b9366e065" x="113.586345" y="294.32673" style="fill: #d62728; stroke: #d62728"/>
     <use xlink:href="#m6b9366e065" x="120.211948" y="293.883435" style="fill: #d62728; stroke: #d62728"/>
     <use xlink:href="#m6b9366e065" x="126.837551" y="294.392178" style="fill: #d62728; stroke: #d62728"/>
     <use xlink:href="#m6b9366e065" x="133.463154" y="294.471733" style="fill: #d62728; stroke: #d62728"/>
     <use xlink:href="#m6b9366e065" x="140.088757" y="294.668988" style="fill: #d62728; stroke: #d62728"/>
     <use xlink:href="#m6b9366e065" x="146.71436" y="294.827577" style="fill: #d62728; stroke: #d62728"/>
     <use xlink:href="#m6b9366e065" x="153.339963" y="294.919799" style="fill: #d62728; stroke: #d62728"/>
     <use xlink:href="#m6b9366e065" x="159.965566" y="294.9762" style="fill: #d62728; stroke: #d62728"/>
     <use xlink:href="#m6b9366e065" x="166.591169" y="295.037199" style="fill: #d62728; stroke: #d62728"/>
     <use xlink:href="#m6b9366e065" x="173.216772" y="295.089457" style="fill: #d62728; stroke: #d62728"/>
     <use xlink:href="#m6b9366e065" x="179.842375" y="295.134786" style="fill: #d62728; stroke: #d62728"/>
     <use xlink:href="#m6b9366e065" x="186.467978" y="295.170296" style="fill: #d62728; stroke: #d62728"/>
     <use xlink:href="#m6b9366e065" x="193.093581" y="295.199949" style="fill: #d62728; stroke: #d62728"/>
     <use xlink:href="#m6b9366e065" x="199.719184" y="295.233466" style="fill: #d62728; stroke: #d62728"/>
     <use xlink:href="#m6b9366e065" x="206.344787" y="295.253345" style="fill: #d62728; stroke: #d62728"/>
     <use xlink:href="#m6b9366e065" x="212.97039" y="295.276834" style="fill: #d62728; stroke: #d62728"/>
     <use xlink:href="#m6b9366e065" x="219.595993" y="295.294428" style="fill: #d62728; stroke: #d62728"/>
     <use xlink:href="#m6b9366e065" x="226.221596" y="295.308854" style="fill: #d62728; stroke: #d62728"/>
     <use xlink:href="#m6b9366e065" x="232.847199" y="295.325223" style="fill: #d62728; stroke: #d62728"/>
     <use xlink:href="#m6b9366e065" x="239.472801" y="295.339115" style="fill: #d62728; stroke: #d62728"/>
     <use xlink:href="#m6b9366e065" x="246.098404" y="295.351386" style="fill: #d62728; stroke: #d62728"/>
     <use xlink:href="#m6b9366e065" x="252.724007" y="295.362133" style="fill: #d62728; stroke: #d62728"/>
     <use xlink:href="#m6b9366e065" x="259.34961" y="295.372989" style="fill: #d62728; stroke: #d62728"/>
     <use xlink:href="#m6b9366e065" x="265.975213" y="295.383003" style="fill: #d62728; stroke: #d62728"/>
     <use xlink:href="#m6b9366e065" x="272.600816" y="295.392474" style="fill: #d62728; stroke: #d62728"/>
     <use xlink:href="#m6b9366e065" x="279.226419" y="295.400178" style="fill: #d62728; stroke: #d62728"/>
     <use xlink:href="#m6b9366e065" x="285.852022" y="295.407502" style="fill: #d62728; stroke: #d62728"/>
     <use xlink:href="#m6b9366e065" x="292.477625" y="295.415746" style="fill: #d62728; stroke: #d62728"/>
     <use xlink:href="#m6b9366e065" x="299.103228" y="295.422873" style="fill: #d62728; stroke: #d62728"/>
     <use xlink:href="#m6b9366e065" x="305.728831" y="295.428728" style="fill: #d62728; stroke: #d62728"/>
     <use xlink:href="#m6b9366e065" x="312.354434" y="295.435151" style="fill: #d62728; stroke: #d62728"/>
     <use xlink:href="#m6b9366e065" x="318.980037" y="295.440617" style="fill: #d62728; stroke: #d62728"/>
     <use xlink:href="#m6b9366e065" x="325.60564" y="295.445736" style="fill: #d62728; stroke: #d62728"/>
     <use xlink:href="#m6b9366e065" x="332.231243" y="295.451054" style="fill: #d62728; stroke: #d62728"/>
     <use xlink:href="#m6b9366e065" x="338.856846" y="295.455432" style="fill: #d62728; stroke: #d62728"/>
     <use xlink:href="#m6b9366e065" x="345.482449" y="295.460321" style="fill: #d62728; stroke: #d62728"/>
     <use xlink:href="#m6b9366e065" x="352.108052" y="295.464506" style="fill: #d62728; stroke: #d62728"/>
     <use xlink:href="#m6b9366e065" x="358.733655" y="295.468349" style="fill: #d62728; stroke: #d62728"/>
     <use xlink:href="#m6b9366e065" x="365.359258" y="295.47194" style="fill: #d62728; stroke: #d62728"/>
     <use xlink:href="#m6b9366e065" x="371.984861" y="295.475279" style="fill: #d62728; stroke: #d62728"/>
     <use xlink:href="#m6b9366e065" x="378.610464" y="295.478782" style="fill: #d62728; stroke: #d62728"/>
     <use xlink:href="#m6b9366e065" x="385.236067" y="295.482221" style="fill: #d62728; stroke: #d62728"/>
     <use xlink:href="#m6b9366e065" x="391.86167" y="295.485212" style="fill: #d62728; stroke: #d62728"/>
     <use xlink:href="#m6b9366e065" x="398.487273" y="295.488" style="fill: #d62728; stroke: #d62728"/>
    </g>
   </g>
   <g id="line2d_13">
    <g clip-path="url(#p13620d7034)">
     <use xlink:href="#m6b9366e065" x="73.832727" y="53.568" style="fill: #d62728; stroke: #d62728"/>
     <use xlink:href="#m6b9366e065" x="80.45833" y="132.565274" style="fill: #d62728; stroke: #d62728"/>
     <use xlink:href="#m6b9366e065" x="87.083933" y="193.743115" style="fill: #d62728; stroke: #d62728"/>
     <use xlink:href="#m6b9366e065" x="93.709536" y="224.877099" style="fill: #d62728; stroke: #d62728"/>
     <use xlink:href="#m6b9366e065" x="100.335139" y="251.341764" style="fill: #d62728; stroke: #d62728"/>
     <use xlink:href="#m6b9366e065" x="106.960742" y="285.261852" style="fill: #d62728; stroke: #d62728"/>
     <use xlink:href="#m6b9366e065" x="113.586345" y="285.617291" style="fill: #d62728; stroke: #d62728"/>
     <use xlink:href="#m6b9366e065" x="120.211948" y="291.668502" style="fill: #d62728; stroke: #d62728"/>
     <use xlink:href="#m6b9366e065" x="126.837551" y="292.754322" style="fill: #d62728; stroke: #d62728"/>
     <use xlink:href="#m6b9366e065" x="133.463154" y="293.863859" style="fill: #d62728; stroke: #d62728"/>
     <use xlink:href="#m6b9366e065" x="140.088757" y="294.254097" style="fill: #d62728; stroke: #d62728"/>
     <use xlink:href="#m6b9366e065" x="146.71436" y="294.389408" style="fill: #d62728; stroke: #d62728"/>
     <use xlink:href="#m6b9366e065" x="153.339963" y="294.585784" style="fill: #d62728; stroke: #d62728"/>
     <use xlink:href="#m6b9366e065" x="159.965566" y="294.771205" style="fill: #d62728; stroke: #d62728"/>
     <use xlink:href="#m6b9366e065" x="166.591169" y="294.861357" style="fill: #d62728; stroke: #d62728"/>
     <use xlink:href="#m6b9366e065" x="173.216772" y="294.942393" style="fill: #d62728; stroke: #d62728"/>
     <use xlink:href="#m6b9366e065" x="179.842375" y="295.000753" style="fill: #d62728; stroke: #d62728"/>
     <use xlink:href="#m6b9366e065" x="186.467978" y="295.050674" style="fill: #d62728; stroke: #d62728"/>
     <use xlink:href="#m6b9366e065" x="193.093581" y="295.097818" style="fill: #d62728; stroke: #d62728"/>
     <use xlink:href="#m6b9366e065" x="199.719184" y="295.129502" style="fill: #d62728; stroke: #d62728"/>
     <use xlink:href="#m6b9366e065" x="206.344787" y="295.168023" style="fill: #d62728; stroke: #d62728"/>
     <use xlink:href="#m6b9366e065" x="212.97039" y="295.192224" style="fill: #d62728; stroke: #d62728"/>
     <use xlink:href="#m6b9366e065" x="219.595993" y="295.225672" style="fill: #d62728; stroke: #d62728"/>
     <use xlink:href="#m6b9366e065" x="226.221596" y="295.250053" style="fill: #d62728; stroke: #d62728"/>
     <use xlink:href="#m6b9366e065" x="232.847199" y="295.271589" style="fill: #d62728; stroke: #d62728"/>
     <use xlink:href="#m6b9366e065" x="239.472801" y="295.290148" style="fill: #d62728; stroke: #d62728"/>
     <use xlink:href="#m6b9366e065" x="246.098404" y="295.30646" style="fill: #d62728; stroke: #d62728"/>
     <use xlink:href="#m6b9366e065" x="252.724007" y="295.320303" style="fill: #d62728; stroke: #d62728"/>
     <use xlink:href="#m6b9366e065" x="259.34961" y="295.334087" style="fill: #d62728; stroke: #d62728"/>
     <use xlink:href="#m6b9366e065" x="265.975213" y="295.345495" style="fill: #d62728; stroke: #d62728"/>
     <use xlink:href="#m6b9366e065" x="272.600816" y="295.355939" style="fill: #d62728; stroke: #d62728"/>
     <use xlink:href="#m6b9366e065" x="279.226419" y="295.366942" style="fill: #d62728; stroke: #d62728"/>
     <use xlink:href="#m6b9366e065" x="285.852022" y="295.378248" style="fill: #d62728; stroke: #d62728"/>
     <use xlink:href="#m6b9366e065" x="292.477625" y="295.388496" style="fill: #d62728; stroke: #d62728"/>
     <use xlink:href="#m6b9366e065" x="299.103228" y="295.396312" style="fill: #d62728; stroke: #d62728"/>
     <use xlink:href="#m6b9366e065" x="305.728831" y="295.404081" style="fill: #d62728; stroke: #d62728"/>
     <use xlink:href="#m6b9366e065" x="312.354434" y="295.410916" style="fill: #d62728; stroke: #d62728"/>
     <use xlink:href="#m6b9366e065" x="318.980037" y="295.418468" style="fill: #d62728; stroke: #d62728"/>
     <use xlink:href="#m6b9366e065" x="325.60564" y="295.425451" style="fill: #d62728; stroke: #d62728"/>
     <use xlink:href="#m6b9366e065" x="332.231243" y="295.430892" style="fill: #d62728; stroke: #d62728"/>
     <use xlink:href="#m6b9366e065" x="338.856846" y="295.43615" style="fill: #d62728; stroke: #d62728"/>
     <use xlink:href="#m6b9366e065" x="345.482449" y="295.441343" style="fill: #d62728; stroke: #d62728"/>
     <use xlink:href="#m6b9366e065" x="352.108052" y="295.446775" style="fill: #d62728; stroke: #d62728"/>
     <use xlink:href="#m6b9366e065" x="358.733655" y="295.451484" style="fill: #d62728; stroke: #d62728"/>
     <use xlink:href="#m6b9366e065" x="365.359258" y="295.456488" style="fill: #d62728; stroke: #d62728"/>
     <use xlink:href="#m6b9366e065" x="371.984861" y="295.460927" style="fill: #d62728; stroke: #d62728"/>
     <use xlink:href="#m6b9366e065" x="378.610464" y="295.465002" style="fill: #d62728; stroke: #d62728"/>
     <use xlink:href="#m6b9366e065" x="385.236067" y="295.468661" style="fill: #d62728; stroke: #d62728"/>
     <use xlink:href="#m6b9366e065" x="391.86167" y="295.471878" style="fill: #d62728; stroke: #d62728"/>
     <use xlink:href="#m6b9366e065" x="398.487273" y="295.475539" style="fill: #d62728; stroke: #d62728"/>
    </g>
   </g>
   <g id="line2d_14">
    <path d="M 73.832727 64.895633 
L 80.45833 155.311886 
L 87.083933 213.848376 
L 93.709536 247.094543 
L 100.335139 267.73667 
L 106.960742 287.823631 
L 113.586345 289.972011 
L 120.211948 292.775968 
L 126.837551 293.57325 
L 133.463154 294.167796 
L 140.088757 294.461542 
L 146.71436 294.608492 
L 153.339963 294.752791 
L 159.965566 294.873703 
L 166.591169 294.949278 
L 173.216772 295.015925 
L 179.842375 295.06777 
L 186.467978 295.110485 
L 193.093581 295.148884 
L 199.719184 295.181484 
L 206.344787 295.210684 
L 212.97039 295.234529 
L 219.595993 295.26005 
L 226.221596 295.279454 
L 232.847199 295.298406 
L 239.472801 295.314631 
L 246.098404 295.328923 
L 252.724007 295.341218 
L 259.34961 295.353538 
L 265.975213 295.364249 
L 272.600816 295.374206 
L 279.226419 295.38356 
L 285.852022 295.392875 
L 292.477625 295.402121 
L 299.103228 295.409592 
L 305.728831 295.416404 
L 312.354434 295.423033 
L 318.980037 295.429542 
L 325.60564 295.435594 
L 332.231243 295.440973 
L 338.856846 295.445791 
L 345.482449 295.450832 
L 352.108052 295.455641 
L 358.733655 295.459917 
L 365.359258 295.464214 
L 371.984861 295.468103 
L 378.610464 295.471892 
L 385.236067 295.475441 
L 391.86167 295.478545 
L 398.487273 295.481769 
" clip-path="url(#p13620d7034)" style="fill: none; stroke-dasharray: 1.5,2.475; stroke-dashoffset: 0; stroke: #d62728; stroke-width: 1.5"/>
   </g>
   <g id="patch_3">
    <path d="M 57.6 307.584 
L 57.6 41.472 
" style="fill: none; stroke: #000000; stroke-width: 0.8; stroke-linejoin: miter; stroke-linecap: square"/>
   </g>
   <g id="patch_4">
    <path d="M 414.72 307.584 
L 414.72 41.472 
" style="fill: none; stroke: #000000; stroke-width: 0.8; stroke-linejoin: miter; stroke-linecap: square"/>
   </g>
   <g id="patch_5">
    <path d="M 57.6 307.584 
L 414.72 307.584 
" style="fill: none; stroke: #000000; stroke-width: 0.8; stroke-linejoin: miter; stroke-linecap: square"/>
   </g>
   <g id="patch_6">
    <path d="M 57.6 41.472 
L 414.72 41.472 
" style="fill: none; stroke: #000000; stroke-width: 0.8; stroke-linejoin: miter; stroke-linecap: square"/>
   </g>
  </g>
  <g id="axes_2">
   <g id="matplotlib.axis_3">
    <g id="ytick_6">
     <g id="line2d_15">
      <path d="M 57.6 283.19393 
L 414.72 283.19393 
" clip-path="url(#p13620d7034)" style="fill: none; stroke: #cccccc; stroke-width: 0.8; stroke-linecap: round"/>
     </g>
     <g id="line2d_16"/>
     <g id="text_14">
      <!-- 0.2 -->
      <g style="fill: #2ca02c" transform="translate(418.22 288.56229)scale(0.15 -0.15)">
       <use xlink:href="#ArialMT-30"/>
       <use xlink:href="#ArialMT-2e" x="55.615234"/>
       <use xlink:href="#ArialMT-32" x="83.398438"/>
      </g>
     </g>
    </g>
    <g id="ytick_7">
     <g id="line2d_17">
      <path d="M 57.6 226.236138 
L 414.72 226.236138 
" clip-path="url(#p13620d7034)" style="fill: none; stroke: #cccccc; stroke-width: 0.8; stroke-linecap: round"/>
     </g>
     <g id="line2d_18"/>
     <g id="text_15">
      <!-- 0.4 -->
      <g style="fill: #2ca02c" transform="translate(418.22 231.604498)scale(0.15 -0.15)">
       <use xlink:href="#ArialMT-30"/>
       <use xlink:href="#ArialMT-2e" x="55.615234"/>
       <use xlink:href="#ArialMT-34" x="83.398438"/>
      </g>
     </g>
    </g>
    <g id="ytick_8">
     <g id="line2d_19">
      <path d="M 57.6 169.278346 
L 414.72 169.278346 
" clip-path="url(#p13620d7034)" style="fill: none; stroke: #cccccc; stroke-width: 0.8; stroke-linecap: round"/>
     </g>
     <g id="line2d_20"/>
     <g id="text_16">
      <!-- 0.6 -->
      <g style="fill: #2ca02c" transform="translate(418.22 174.646706)scale(0.15 -0.15)">
       <defs>
        <path id="ArialMT-36" d="M 3184 3459 
L 2625 3416 
Q 2550 3747 2413 3897 
Q 2184 4138 1850 4138 
Q 1581 4138 1378 3988 
Q 1113 3794 959 3422 
Q 806 3050 800 2363 
Q 1003 2672 1297 2822 
Q 1591 2972 1913 2972 
Q 2475 2972 2870 2558 
Q 3266 2144 3266 1488 
Q 3266 1056 3080 686 
Q 2894 316 2569 119 
Q 2244 -78 1831 -78 
Q 1128 -78 684 439 
Q 241 956 241 2144 
Q 241 3472 731 4075 
Q 1159 4600 1884 4600 
Q 2425 4600 2770 4297 
Q 3116 3994 3184 3459 
z
M 888 1484 
Q 888 1194 1011 928 
Q 1134 663 1356 523 
Q 1578 384 1822 384 
Q 2178 384 2434 671 
Q 2691 959 2691 1453 
Q 2691 1928 2437 2201 
Q 2184 2475 1800 2475 
Q 1419 2475 1153 2201 
Q 888 1928 888 1484 
z
" transform="scale(0.015625)"/>
       </defs>
       <use xlink:href="#ArialMT-30"/>
       <use xlink:href="#ArialMT-2e" x="55.615234"/>
       <use xlink:href="#ArialMT-36" x="83.398438"/>
      </g>
     </g>
    </g>
    <g id="ytick_9">
     <g id="line2d_21">
      <path d="M 57.6 112.320554 
L 414.72 112.320554 
" clip-path="url(#p13620d7034)" style="fill: none; stroke: #cccccc; stroke-width: 0.8; stroke-linecap: round"/>
     </g>
     <g id="line2d_22"/>
     <g id="text_17">
      <!-- 0.8 -->
      <g style="fill: #2ca02c" transform="translate(418.22 117.688914)scale(0.15 -0.15)">
       <defs>
        <path id="ArialMT-38" d="M 1131 2484 
Q 781 2613 612 2850 
Q 444 3088 444 3419 
Q 444 3919 803 4259 
Q 1163 4600 1759 4600 
Q 2359 4600 2725 4251 
Q 3091 3903 3091 3403 
Q 3091 3084 2923 2848 
Q 2756 2613 2416 2484 
Q 2838 2347 3058 2040 
Q 3278 1734 3278 1309 
Q 3278 722 2862 322 
Q 2447 -78 1769 -78 
Q 1091 -78 675 323 
Q 259 725 259 1325 
Q 259 1772 486 2073 
Q 713 2375 1131 2484 
z
M 1019 3438 
Q 1019 3113 1228 2906 
Q 1438 2700 1772 2700 
Q 2097 2700 2305 2904 
Q 2513 3109 2513 3406 
Q 2513 3716 2298 3927 
Q 2084 4138 1766 4138 
Q 1444 4138 1231 3931 
Q 1019 3725 1019 3438 
z
M 838 1322 
Q 838 1081 952 856 
Q 1066 631 1291 507 
Q 1516 384 1775 384 
Q 2178 384 2440 643 
Q 2703 903 2703 1303 
Q 2703 1709 2433 1975 
Q 2163 2241 1756 2241 
Q 1359 2241 1098 1978 
Q 838 1716 838 1322 
z
" transform="scale(0.015625)"/>
       </defs>
       <use xlink:href="#ArialMT-30"/>
       <use xlink:href="#ArialMT-2e" x="55.615234"/>
       <use xlink:href="#ArialMT-38" x="83.398438"/>
      </g>
     </g>
    </g>
    <g id="ytick_10">
     <g id="line2d_23">
      <path d="M 57.6 55.362762 
L 414.72 55.362762 
" clip-path="url(#p13620d7034)" style="fill: none; stroke: #cccccc; stroke-width: 0.8; stroke-linecap: round"/>
     </g>
     <g id="line2d_24"/>
     <g id="text_18">
      <!-- 1.0 -->
      <g style="fill: #2ca02c" transform="translate(418.22 60.731122)scale(0.15 -0.15)">
       <use xlink:href="#ArialMT-31"/>
       <use xlink:href="#ArialMT-2e" x="55.615234"/>
       <use xlink:href="#ArialMT-30" x="83.398438"/>
      </g>
     </g>
    </g>
    <g id="text_19">
     <!-- Accuracy -->
     <g style="fill: #2ca02c" transform="translate(453.806719 205.369406)rotate(-90)scale(0.15 -0.15)">
      <defs>
       <path id="ArialMT-41" d="M -9 0 
L 1750 4581 
L 2403 4581 
L 4278 0 
L 3588 0 
L 3053 1388 
L 1138 1388 
L 634 0 
L -9 0 
z
M 1313 1881 
L 2866 1881 
L 2388 3150 
Q 2169 3728 2063 4100 
Q 1975 3659 1816 3225 
L 1313 1881 
z
" transform="scale(0.015625)"/>
       <path id="ArialMT-75" d="M 2597 0 
L 2597 488 
Q 2209 -75 1544 -75 
Q 1250 -75 995 37 
Q 741 150 617 320 
Q 494 491 444 738 
Q 409 903 409 1263 
L 409 3319 
L 972 3319 
L 972 1478 
Q 972 1038 1006 884 
Q 1059 663 1231 536 
Q 1403 409 1656 409 
Q 1909 409 2131 539 
Q 2353 669 2445 892 
Q 2538 1116 2538 1541 
L 2538 3319 
L 3100 3319 
L 3100 0 
L 2597 0 
z
" transform="scale(0.015625)"/>
       <path id="ArialMT-72" d="M 416 0 
L 416 3319 
L 922 3319 
L 922 2816 
Q 1116 3169 1280 3281 
Q 1444 3394 1641 3394 
Q 1925 3394 2219 3213 
L 2025 2691 
Q 1819 2813 1613 2813 
Q 1428 2813 1281 2702 
Q 1134 2591 1072 2394 
Q 978 2094 978 1738 
L 978 0 
L 416 0 
z
" transform="scale(0.015625)"/>
       <path id="ArialMT-61" d="M 2588 409 
Q 2275 144 1986 34 
Q 1697 -75 1366 -75 
Q 819 -75 525 192 
Q 231 459 231 875 
Q 231 1119 342 1320 
Q 453 1522 633 1644 
Q 813 1766 1038 1828 
Q 1203 1872 1538 1913 
Q 2219 1994 2541 2106 
Q 2544 2222 2544 2253 
Q 2544 2597 2384 2738 
Q 2169 2928 1744 2928 
Q 1347 2928 1158 2789 
Q 969 2650 878 2297 
L 328 2372 
Q 403 2725 575 2942 
Q 747 3159 1072 3276 
Q 1397 3394 1825 3394 
Q 2250 3394 2515 3294 
Q 2781 3194 2906 3042 
Q 3031 2891 3081 2659 
Q 3109 2516 3109 2141 
L 3109 1391 
Q 3109 606 3145 398 
Q 3181 191 3288 0 
L 2700 0 
Q 2613 175 2588 409 
z
M 2541 1666 
Q 2234 1541 1622 1453 
Q 1275 1403 1131 1340 
Q 988 1278 909 1158 
Q 831 1038 831 891 
Q 831 666 1001 516 
Q 1172 366 1500 366 
Q 1825 366 2078 508 
Q 2331 650 2450 897 
Q 2541 1088 2541 1459 
L 2541 1666 
z
" transform="scale(0.015625)"/>
       <path id="ArialMT-79" d="M 397 -1278 
L 334 -750 
Q 519 -800 656 -800 
Q 844 -800 956 -737 
Q 1069 -675 1141 -563 
Q 1194 -478 1313 -144 
Q 1328 -97 1363 -6 
L 103 3319 
L 709 3319 
L 1400 1397 
Q 1534 1031 1641 628 
Q 1738 1016 1872 1384 
L 2581 3319 
L 3144 3319 
L 1881 -56 
Q 1678 -603 1566 -809 
Q 1416 -1088 1222 -1217 
Q 1028 -1347 759 -1347 
Q 597 -1347 397 -1278 
z
" transform="scale(0.015625)"/>
      </defs>
      <use xlink:href="#ArialMT-41"/>
      <use xlink:href="#ArialMT-63" x="66.699219"/>
      <use xlink:href="#ArialMT-63" x="116.699219"/>
      <use xlink:href="#ArialMT-75" x="166.699219"/>
      <use xlink:href="#ArialMT-72" x="222.314453"/>
      <use xlink:href="#ArialMT-61" x="255.615234"/>
      <use xlink:href="#ArialMT-63" x="311.230469"/>
      <use xlink:href="#ArialMT-79" x="361.230469"/>
     </g>
    </g>
   </g>
   <g id="PolyCollection_2">
    <defs>
     <path id="m2f648fa0bb" d="M 73.832727 -92.631297 
L 73.832727 -50.112 
L 80.45833 -140.271583 
L 87.083933 -209.264512 
L 93.709536 -242.556547 
L 100.335139 -255.070211 
L 106.960742 -283.574631 
L 113.586345 -285.278156 
L 120.211948 -288.127691 
L 126.837551 -288.127691 
L 133.463154 -290.237238 
L 140.088757 -290.237238 
L 146.71436 -290.237238 
L 153.339963 -290.237238 
L 159.965566 -290.237238 
L 166.591169 -290.237238 
L 173.216772 -290.237238 
L 179.842375 -290.237238 
L 186.467978 -290.237238 
L 193.093581 -290.237238 
L 199.719184 -290.237238 
L 206.344787 -290.237238 
L 212.97039 -290.237238 
L 219.595993 -290.237238 
L 226.221596 -290.237238 
L 232.847199 -290.237238 
L 239.472801 -290.237238 
L 246.098404 -290.237238 
L 252.724007 -290.237238 
L 259.34961 -290.237238 
L 265.975213 -290.237238 
L 272.600816 -290.237238 
L 279.226419 -290.237238 
L 285.852022 -290.237238 
L 292.477625 -290.237238 
L 299.103228 -290.237238 
L 305.728831 -290.237238 
L 312.354434 -290.237238 
L 318.980037 -290.237238 
L 325.60564 -290.237238 
L 332.231243 -290.237238 
L 338.856846 -290.237238 
L 345.482449 -290.237238 
L 352.108052 -290.237238 
L 358.733655 -290.237238 
L 365.359258 -290.237238 
L 371.984861 -290.237238 
L 378.610464 -290.237238 
L 385.236067 -290.237238 
L 391.86167 -290.237238 
L 398.487273 -290.237238 
L 398.487273 -290.237238 
L 398.487273 -290.237238 
L 391.86167 -290.237238 
L 385.236067 -290.237238 
L 378.610464 -290.237238 
L 371.984861 -290.237238 
L 365.359258 -290.237238 
L 358.733655 -290.237238 
L 352.108052 -290.237238 
L 345.482449 -290.237238 
L 338.856846 -290.237238 
L 332.231243 -290.237238 
L 325.60564 -290.237238 
L 318.980037 -290.237238 
L 312.354434 -290.237238 
L 305.728831 -290.237238 
L 299.103228 -290.237238 
L 292.477625 -290.237238 
L 285.852022 -290.237238 
L 279.226419 -290.237238 
L 272.600816 -290.237238 
L 265.975213 -290.237238 
L 259.34961 -290.237238 
L 252.724007 -290.237238 
L 246.098404 -290.237238 
L 239.472801 -290.237238 
L 232.847199 -290.237238 
L 226.221596 -290.237238 
L 219.595993 -290.237238 
L 212.97039 -290.237238 
L 206.344787 -290.237238 
L 199.719184 -290.237238 
L 193.093581 -290.237238 
L 186.467978 -290.237238 
L 179.842375 -290.237238 
L 173.216772 -290.237238 
L 166.591169 -290.237238 
L 159.965566 -290.237238 
L 153.339963 -290.237238 
L 146.71436 -290.237238 
L 140.088757 -290.237238 
L 133.463154 -290.237238 
L 126.837551 -291.292011 
L 120.211948 -291.292011 
L 113.586345 -292.032 
L 106.960742 -290.571205 
L 100.335139 -286.377632 
L 93.709536 -278.850586 
L 87.083933 -249.910963 
L 80.45833 -199.714435 
L 73.832727 -92.631297 
z
" style="stroke: #2ca02c; stroke-opacity: 0.1"/>
    </defs>
    <g clip-path="url(#p13620d7034)">
     <use xlink:href="#m2f648fa0bb" x="0" y="345.6" style="fill: #2ca02c; fill-opacity: 0.1; stroke: #2ca02c; stroke-opacity: 0.1"/>
    </g>
   </g>
   <g id="LineCollection_2">
    <path d="M 73.832727 295.488 
L 73.832727 252.968703 
" clip-path="url(#p13620d7034)" style="fill: none; stroke: #2ca02c; stroke-width: 1.5"/>
    <path d="M 80.45833 205.328417 
L 80.45833 145.885565 
" clip-path="url(#p13620d7034)" style="fill: none; stroke: #2ca02c; stroke-width: 1.5"/>
    <path d="M 87.083933 136.335488 
L 87.083933 95.689037 
" clip-path="url(#p13620d7034)" style="fill: none; stroke: #2ca02c; stroke-width: 1.5"/>
    <path d="M 93.709536 103.043453 
L 93.709536 66.749414 
" clip-path="url(#p13620d7034)" style="fill: none; stroke: #2ca02c; stroke-width: 1.5"/>
    <path d="M 100.335139 90.529789 
L 100.335139 59.222368 
" clip-path="url(#p13620d7034)" style="fill: none; stroke: #2ca02c; stroke-width: 1.5"/>
    <path d="M 106.960742 62.025369 
L 106.960742 55.028795 
" clip-path="url(#p13620d7034)" style="fill: none; stroke: #2ca02c; stroke-width: 1.5"/>
    <path d="M 113.586345 60.321844 
L 113.586345 53.568 
" clip-path="url(#p13620d7034)" style="fill: none; stroke: #2ca02c; stroke-width: 1.5"/>
    <path d="M 120.211948 57.472309 
L 120.211948 54.307989 
" clip-path="url(#p13620d7034)" style="fill: none; stroke: #2ca02c; stroke-width: 1.5"/>
    <path d="M 126.837551 57.472309 
L 126.837551 54.307989 
" clip-path="url(#p13620d7034)" style="fill: none; stroke: #2ca02c; stroke-width: 1.5"/>
    <path d="M 133.463154 55.362762 
L 133.463154 55.362762 
" clip-path="url(#p13620d7034)" style="fill: none; stroke: #2ca02c; stroke-width: 1.5"/>
    <path d="M 140.088757 55.362762 
L 140.088757 55.362762 
" clip-path="url(#p13620d7034)" style="fill: none; stroke: #2ca02c; stroke-width: 1.5"/>
    <path d="M 146.71436 55.362762 
L 146.71436 55.362762 
" clip-path="url(#p13620d7034)" style="fill: none; stroke: #2ca02c; stroke-width: 1.5"/>
    <path d="M 153.339963 55.362762 
L 153.339963 55.362762 
" clip-path="url(#p13620d7034)" style="fill: none; stroke: #2ca02c; stroke-width: 1.5"/>
    <path d="M 159.965566 55.362762 
L 159.965566 55.362762 
" clip-path="url(#p13620d7034)" style="fill: none; stroke: #2ca02c; stroke-width: 1.5"/>
    <path d="M 166.591169 55.362762 
L 166.591169 55.362762 
" clip-path="url(#p13620d7034)" style="fill: none; stroke: #2ca02c; stroke-width: 1.5"/>
    <path d="M 173.216772 55.362762 
L 173.216772 55.362762 
" clip-path="url(#p13620d7034)" style="fill: none; stroke: #2ca02c; stroke-width: 1.5"/>
    <path d="M 179.842375 55.362762 
L 179.842375 55.362762 
" clip-path="url(#p13620d7034)" style="fill: none; stroke: #2ca02c; stroke-width: 1.5"/>
    <path d="M 186.467978 55.362762 
L 186.467978 55.362762 
" clip-path="url(#p13620d7034)" style="fill: none; stroke: #2ca02c; stroke-width: 1.5"/>
    <path d="M 193.093581 55.362762 
L 193.093581 55.362762 
" clip-path="url(#p13620d7034)" style="fill: none; stroke: #2ca02c; stroke-width: 1.5"/>
    <path d="M 199.719184 55.362762 
L 199.719184 55.362762 
" clip-path="url(#p13620d7034)" style="fill: none; stroke: #2ca02c; stroke-width: 1.5"/>
    <path d="M 206.344787 55.362762 
L 206.344787 55.362762 
" clip-path="url(#p13620d7034)" style="fill: none; stroke: #2ca02c; stroke-width: 1.5"/>
    <path d="M 212.97039 55.362762 
L 212.97039 55.362762 
" clip-path="url(#p13620d7034)" style="fill: none; stroke: #2ca02c; stroke-width: 1.5"/>
    <path d="M 219.595993 55.362762 
L 219.595993 55.362762 
" clip-path="url(#p13620d7034)" style="fill: none; stroke: #2ca02c; stroke-width: 1.5"/>
    <path d="M 226.221596 55.362762 
L 226.221596 55.362762 
" clip-path="url(#p13620d7034)" style="fill: none; stroke: #2ca02c; stroke-width: 1.5"/>
    <path d="M 232.847199 55.362762 
L 232.847199 55.362762 
" clip-path="url(#p13620d7034)" style="fill: none; stroke: #2ca02c; stroke-width: 1.5"/>
    <path d="M 239.472801 55.362762 
L 239.472801 55.362762 
" clip-path="url(#p13620d7034)" style="fill: none; stroke: #2ca02c; stroke-width: 1.5"/>
    <path d="M 246.098404 55.362762 
L 246.098404 55.362762 
" clip-path="url(#p13620d7034)" style="fill: none; stroke: #2ca02c; stroke-width: 1.5"/>
    <path d="M 252.724007 55.362762 
L 252.724007 55.362762 
" clip-path="url(#p13620d7034)" style="fill: none; stroke: #2ca02c; stroke-width: 1.5"/>
    <path d="M 259.34961 55.362762 
L 259.34961 55.362762 
" clip-path="url(#p13620d7034)" style="fill: none; stroke: #2ca02c; stroke-width: 1.5"/>
    <path d="M 265.975213 55.362762 
L 265.975213 55.362762 
" clip-path="url(#p13620d7034)" style="fill: none; stroke: #2ca02c; stroke-width: 1.5"/>
    <path d="M 272.600816 55.362762 
L 272.600816 55.362762 
" clip-path="url(#p13620d7034)" style="fill: none; stroke: #2ca02c; stroke-width: 1.5"/>
    <path d="M 279.226419 55.362762 
L 279.226419 55.362762 
" clip-path="url(#p13620d7034)" style="fill: none; stroke: #2ca02c; stroke-width: 1.5"/>
    <path d="M 285.852022 55.362762 
L 285.852022 55.362762 
" clip-path="url(#p13620d7034)" style="fill: none; stroke: #2ca02c; stroke-width: 1.5"/>
    <path d="M 292.477625 55.362762 
L 292.477625 55.362762 
" clip-path="url(#p13620d7034)" style="fill: none; stroke: #2ca02c; stroke-width: 1.5"/>
    <path d="M 299.103228 55.362762 
L 299.103228 55.362762 
" clip-path="url(#p13620d7034)" style="fill: none; stroke: #2ca02c; stroke-width: 1.5"/>
    <path d="M 305.728831 55.362762 
L 305.728831 55.362762 
" clip-path="url(#p13620d7034)" style="fill: none; stroke: #2ca02c; stroke-width: 1.5"/>
    <path d="M 312.354434 55.362762 
L 312.354434 55.362762 
" clip-path="url(#p13620d7034)" style="fill: none; stroke: #2ca02c; stroke-width: 1.5"/>
    <path d="M 318.980037 55.362762 
L 318.980037 55.362762 
" clip-path="url(#p13620d7034)" style="fill: none; stroke: #2ca02c; stroke-width: 1.5"/>
    <path d="M 325.60564 55.362762 
L 325.60564 55.362762 
" clip-path="url(#p13620d7034)" style="fill: none; stroke: #2ca02c; stroke-width: 1.5"/>
    <path d="M 332.231243 55.362762 
L 332.231243 55.362762 
" clip-path="url(#p13620d7034)" style="fill: none; stroke: #2ca02c; stroke-width: 1.5"/>
    <path d="M 338.856846 55.362762 
L 338.856846 55.362762 
" clip-path="url(#p13620d7034)" style="fill: none; stroke: #2ca02c; stroke-width: 1.5"/>
    <path d="M 345.482449 55.362762 
L 345.482449 55.362762 
" clip-path="url(#p13620d7034)" style="fill: none; stroke: #2ca02c; stroke-width: 1.5"/>
    <path d="M 352.108052 55.362762 
L 352.108052 55.362762 
" clip-path="url(#p13620d7034)" style="fill: none; stroke: #2ca02c; stroke-width: 1.5"/>
    <path d="M 358.733655 55.362762 
L 358.733655 55.362762 
" clip-path="url(#p13620d7034)" style="fill: none; stroke: #2ca02c; stroke-width: 1.5"/>
    <path d="M 365.359258 55.362762 
L 365.359258 55.362762 
" clip-path="url(#p13620d7034)" style="fill: none; stroke: #2ca02c; stroke-width: 1.5"/>
    <path d="M 371.984861 55.362762 
L 371.984861 55.362762 
" clip-path="url(#p13620d7034)" style="fill: none; stroke: #2ca02c; stroke-width: 1.5"/>
    <path d="M 378.610464 55.362762 
L 378.610464 55.362762 
" clip-path="url(#p13620d7034)" style="fill: none; stroke: #2ca02c; stroke-width: 1.5"/>
    <path d="M 385.236067 55.362762 
L 385.236067 55.362762 
" clip-path="url(#p13620d7034)" style="fill: none; stroke: #2ca02c; stroke-width: 1.5"/>
    <path d="M 391.86167 55.362762 
L 391.86167 55.362762 
" clip-path="url(#p13620d7034)" style="fill: none; stroke: #2ca02c; stroke-width: 1.5"/>
    <path d="M 398.487273 55.362762 
L 398.487273 55.362762 
" clip-path="url(#p13620d7034)" style="fill: none; stroke: #2ca02c; stroke-width: 1.5"/>
   </g>
   <g id="line2d_25">
    <defs>
     <path id="m9cdded3f77" d="M 2 0 
L -2 -0 
" style="stroke: #2ca02c"/>
    </defs>
    <g clip-path="url(#p13620d7034)">
     <use xlink:href="#m9cdded3f77" x="73.832727" y="295.488" style="fill: #2ca02c; stroke: #2ca02c"/>
     <use xlink:href="#m9cdded3f77" x="80.45833" y="205.328417" style="fill: #2ca02c; stroke: #2ca02c"/>
     <use xlink:href="#m9cdded3f77" x="87.083933" y="136.335488" style="fill: #2ca02c; stroke: #2ca02c"/>
     <use xlink:href="#m9cdded3f77" x="93.709536" y="103.043453" style="fill: #2ca02c; stroke: #2ca02c"/>
     <use xlink:href="#m9cdded3f77" x="100.335139" y="90.529789" style="fill: #2ca02c; stroke: #2ca02c"/>
     <use xlink:href="#m9cdded3f77" x="106.960742" y="62.025369" style="fill: #2ca02c; stroke: #2ca02c"/>
     <use xlink:href="#m9cdded3f77" x="113.586345" y="60.321844" style="fill: #2ca02c; stroke: #2ca02c"/>
     <use xlink:href="#m9cdded3f77" x="120.211948" y="57.472309" style="fill: #2ca02c; stroke: #2ca02c"/>
     <use xlink:href="#m9cdded3f77" x="126.837551" y="57.472309" style="fill: #2ca02c; stroke: #2ca02c"/>
     <use xlink:href="#m9cdded3f77" x="133.463154" y="55.362762" style="fill: #2ca02c; stroke: #2ca02c"/>
     <use xlink:href="#m9cdded3f77" x="140.088757" y="55.362762" style="fill: #2ca02c; stroke: #2ca02c"/>
     <use xlink:href="#m9cdded3f77" x="146.71436" y="55.362762" style="fill: #2ca02c; stroke: #2ca02c"/>
     <use xlink:href="#m9cdded3f77" x="153.339963" y="55.362762" style="fill: #2ca02c; stroke: #2ca02c"/>
     <use xlink:href="#m9cdded3f77" x="159.965566" y="55.362762" style="fill: #2ca02c; stroke: #2ca02c"/>
     <use xlink:href="#m9cdded3f77" x="166.591169" y="55.362762" style="fill: #2ca02c; stroke: #2ca02c"/>
     <use xlink:href="#m9cdded3f77" x="173.216772" y="55.362762" style="fill: #2ca02c; stroke: #2ca02c"/>
     <use xlink:href="#m9cdded3f77" x="179.842375" y="55.362762" style="fill: #2ca02c; stroke: #2ca02c"/>
     <use xlink:href="#m9cdded3f77" x="186.467978" y="55.362762" style="fill: #2ca02c; stroke: #2ca02c"/>
     <use xlink:href="#m9cdded3f77" x="193.093581" y="55.362762" style="fill: #2ca02c; stroke: #2ca02c"/>
     <use xlink:href="#m9cdded3f77" x="199.719184" y="55.362762" style="fill: #2ca02c; stroke: #2ca02c"/>
     <use xlink:href="#m9cdded3f77" x="206.344787" y="55.362762" style="fill: #2ca02c; stroke: #2ca02c"/>
     <use xlink:href="#m9cdded3f77" x="212.97039" y="55.362762" style="fill: #2ca02c; stroke: #2ca02c"/>
     <use xlink:href="#m9cdded3f77" x="219.595993" y="55.362762" style="fill: #2ca02c; stroke: #2ca02c"/>
     <use xlink:href="#m9cdded3f77" x="226.221596" y="55.362762" style="fill: #2ca02c; stroke: #2ca02c"/>
     <use xlink:href="#m9cdded3f77" x="232.847199" y="55.362762" style="fill: #2ca02c; stroke: #2ca02c"/>
     <use xlink:href="#m9cdded3f77" x="239.472801" y="55.362762" style="fill: #2ca02c; stroke: #2ca02c"/>
     <use xlink:href="#m9cdded3f77" x="246.098404" y="55.362762" style="fill: #2ca02c; stroke: #2ca02c"/>
     <use xlink:href="#m9cdded3f77" x="252.724007" y="55.362762" style="fill: #2ca02c; stroke: #2ca02c"/>
     <use xlink:href="#m9cdded3f77" x="259.34961" y="55.362762" style="fill: #2ca02c; stroke: #2ca02c"/>
     <use xlink:href="#m9cdded3f77" x="265.975213" y="55.362762" style="fill: #2ca02c; stroke: #2ca02c"/>
     <use xlink:href="#m9cdded3f77" x="272.600816" y="55.362762" style="fill: #2ca02c; stroke: #2ca02c"/>
     <use xlink:href="#m9cdded3f77" x="279.226419" y="55.362762" style="fill: #2ca02c; stroke: #2ca02c"/>
     <use xlink:href="#m9cdded3f77" x="285.852022" y="55.362762" style="fill: #2ca02c; stroke: #2ca02c"/>
     <use xlink:href="#m9cdded3f77" x="292.477625" y="55.362762" style="fill: #2ca02c; stroke: #2ca02c"/>
     <use xlink:href="#m9cdded3f77" x="299.103228" y="55.362762" style="fill: #2ca02c; stroke: #2ca02c"/>
     <use xlink:href="#m9cdded3f77" x="305.728831" y="55.362762" style="fill: #2ca02c; stroke: #2ca02c"/>
     <use xlink:href="#m9cdded3f77" x="312.354434" y="55.362762" style="fill: #2ca02c; stroke: #2ca02c"/>
     <use xlink:href="#m9cdded3f77" x="318.980037" y="55.362762" style="fill: #2ca02c; stroke: #2ca02c"/>
     <use xlink:href="#m9cdded3f77" x="325.60564" y="55.362762" style="fill: #2ca02c; stroke: #2ca02c"/>
     <use xlink:href="#m9cdded3f77" x="332.231243" y="55.362762" style="fill: #2ca02c; stroke: #2ca02c"/>
     <use xlink:href="#m9cdded3f77" x="338.856846" y="55.362762" style="fill: #2ca02c; stroke: #2ca02c"/>
     <use xlink:href="#m9cdded3f77" x="345.482449" y="55.362762" style="fill: #2ca02c; stroke: #2ca02c"/>
     <use xlink:href="#m9cdded3f77" x="352.108052" y="55.362762" style="fill: #2ca02c; stroke: #2ca02c"/>
     <use xlink:href="#m9cdded3f77" x="358.733655" y="55.362762" style="fill: #2ca02c; stroke: #2ca02c"/>
     <use xlink:href="#m9cdded3f77" x="365.359258" y="55.362762" style="fill: #2ca02c; stroke: #2ca02c"/>
     <use xlink:href="#m9cdded3f77" x="371.984861" y="55.362762" style="fill: #2ca02c; stroke: #2ca02c"/>
     <use xlink:href="#m9cdded3f77" x="378.610464" y="55.362762" style="fill: #2ca02c; stroke: #2ca02c"/>
     <use xlink:href="#m9cdded3f77" x="385.236067" y="55.362762" style="fill: #2ca02c; stroke: #2ca02c"/>
     <use xlink:href="#m9cdded3f77" x="391.86167" y="55.362762" style="fill: #2ca02c; stroke: #2ca02c"/>
     <use xlink:href="#m9cdded3f77" x="398.487273" y="55.362762" style="fill: #2ca02c; stroke: #2ca02c"/>
    </g>
   </g>
   <g id="line2d_26">
    <g clip-path="url(#p13620d7034)">
     <use xlink:href="#m9cdded3f77" x="73.832727" y="252.968703" style="fill: #2ca02c; stroke: #2ca02c"/>
     <use xlink:href="#m9cdded3f77" x="80.45833" y="145.885565" style="fill: #2ca02c; stroke: #2ca02c"/>
     <use xlink:href="#m9cdded3f77" x="87.083933" y="95.689037" style="fill: #2ca02c; stroke: #2ca02c"/>
     <use xlink:href="#m9cdded3f77" x="93.709536" y="66.749414" style="fill: #2ca02c; stroke: #2ca02c"/>
     <use xlink:href="#m9cdded3f77" x="100.335139" y="59.222368" style="fill: #2ca02c; stroke: #2ca02c"/>
     <use xlink:href="#m9cdded3f77" x="106.960742" y="55.028795" style="fill: #2ca02c; stroke: #2ca02c"/>
     <use xlink:href="#m9cdded3f77" x="113.586345" y="53.568" style="fill: #2ca02c; stroke: #2ca02c"/>
     <use xlink:href="#m9cdded3f77" x="120.211948" y="54.307989" style="fill: #2ca02c; stroke: #2ca02c"/>
     <use xlink:href="#m9cdded3f77" x="126.837551" y="54.307989" style="fill: #2ca02c; stroke: #2ca02c"/>
     <use xlink:href="#m9cdded3f77" x="133.463154" y="55.362762" style="fill: #2ca02c; stroke: #2ca02c"/>
     <use xlink:href="#m9cdded3f77" x="140.088757" y="55.362762" style="fill: #2ca02c; stroke: #2ca02c"/>
     <use xlink:href="#m9cdded3f77" x="146.71436" y="55.362762" style="fill: #2ca02c; stroke: #2ca02c"/>
     <use xlink:href="#m9cdded3f77" x="153.339963" y="55.362762" style="fill: #2ca02c; stroke: #2ca02c"/>
     <use xlink:href="#m9cdded3f77" x="159.965566" y="55.362762" style="fill: #2ca02c; stroke: #2ca02c"/>
     <use xlink:href="#m9cdded3f77" x="166.591169" y="55.362762" style="fill: #2ca02c; stroke: #2ca02c"/>
     <use xlink:href="#m9cdded3f77" x="173.216772" y="55.362762" style="fill: #2ca02c; stroke: #2ca02c"/>
     <use xlink:href="#m9cdded3f77" x="179.842375" y="55.362762" style="fill: #2ca02c; stroke: #2ca02c"/>
     <use xlink:href="#m9cdded3f77" x="186.467978" y="55.362762" style="fill: #2ca02c; stroke: #2ca02c"/>
     <use xlink:href="#m9cdded3f77" x="193.093581" y="55.362762" style="fill: #2ca02c; stroke: #2ca02c"/>
     <use xlink:href="#m9cdded3f77" x="199.719184" y="55.362762" style="fill: #2ca02c; stroke: #2ca02c"/>
     <use xlink:href="#m9cdded3f77" x="206.344787" y="55.362762" style="fill: #2ca02c; stroke: #2ca02c"/>
     <use xlink:href="#m9cdded3f77" x="212.97039" y="55.362762" style="fill: #2ca02c; stroke: #2ca02c"/>
     <use xlink:href="#m9cdded3f77" x="219.595993" y="55.362762" style="fill: #2ca02c; stroke: #2ca02c"/>
     <use xlink:href="#m9cdded3f77" x="226.221596" y="55.362762" style="fill: #2ca02c; stroke: #2ca02c"/>
     <use xlink:href="#m9cdded3f77" x="232.847199" y="55.362762" style="fill: #2ca02c; stroke: #2ca02c"/>
     <use xlink:href="#m9cdded3f77" x="239.472801" y="55.362762" style="fill: #2ca02c; stroke: #2ca02c"/>
     <use xlink:href="#m9cdded3f77" x="246.098404" y="55.362762" style="fill: #2ca02c; stroke: #2ca02c"/>
     <use xlink:href="#m9cdded3f77" x="252.724007" y="55.362762" style="fill: #2ca02c; stroke: #2ca02c"/>
     <use xlink:href="#m9cdded3f77" x="259.34961" y="55.362762" style="fill: #2ca02c; stroke: #2ca02c"/>
     <use xlink:href="#m9cdded3f77" x="265.975213" y="55.362762" style="fill: #2ca02c; stroke: #2ca02c"/>
     <use xlink:href="#m9cdded3f77" x="272.600816" y="55.362762" style="fill: #2ca02c; stroke: #2ca02c"/>
     <use xlink:href="#m9cdded3f77" x="279.226419" y="55.362762" style="fill: #2ca02c; stroke: #2ca02c"/>
     <use xlink:href="#m9cdded3f77" x="285.852022" y="55.362762" style="fill: #2ca02c; stroke: #2ca02c"/>
     <use xlink:href="#m9cdded3f77" x="292.477625" y="55.362762" style="fill: #2ca02c; stroke: #2ca02c"/>
     <use xlink:href="#m9cdded3f77" x="299.103228" y="55.362762" style="fill: #2ca02c; stroke: #2ca02c"/>
     <use xlink:href="#m9cdded3f77" x="305.728831" y="55.362762" style="fill: #2ca02c; stroke: #2ca02c"/>
     <use xlink:href="#m9cdded3f77" x="312.354434" y="55.362762" style="fill: #2ca02c; stroke: #2ca02c"/>
     <use xlink:href="#m9cdded3f77" x="318.980037" y="55.362762" style="fill: #2ca02c; stroke: #2ca02c"/>
     <use xlink:href="#m9cdded3f77" x="325.60564" y="55.362762" style="fill: #2ca02c; stroke: #2ca02c"/>
     <use xlink:href="#m9cdded3f77" x="332.231243" y="55.362762" style="fill: #2ca02c; stroke: #2ca02c"/>
     <use xlink:href="#m9cdded3f77" x="338.856846" y="55.362762" style="fill: #2ca02c; stroke: #2ca02c"/>
     <use xlink:href="#m9cdded3f77" x="345.482449" y="55.362762" style="fill: #2ca02c; stroke: #2ca02c"/>
     <use xlink:href="#m9cdded3f77" x="352.108052" y="55.362762" style="fill: #2ca02c; stroke: #2ca02c"/>
     <use xlink:href="#m9cdded3f77" x="358.733655" y="55.362762" style="fill: #2ca02c; stroke: #2ca02c"/>
     <use xlink:href="#m9cdded3f77" x="365.359258" y="55.362762" style="fill: #2ca02c; stroke: #2ca02c"/>
     <use xlink:href="#m9cdded3f77" x="371.984861" y="55.362762" style="fill: #2ca02c; stroke: #2ca02c"/>
     <use xlink:href="#m9cdded3f77" x="378.610464" y="55.362762" style="fill: #2ca02c; stroke: #2ca02c"/>
     <use xlink:href="#m9cdded3f77" x="385.236067" y="55.362762" style="fill: #2ca02c; stroke: #2ca02c"/>
     <use xlink:href="#m9cdded3f77" x="391.86167" y="55.362762" style="fill: #2ca02c; stroke: #2ca02c"/>
     <use xlink:href="#m9cdded3f77" x="398.487273" y="55.362762" style="fill: #2ca02c; stroke: #2ca02c"/>
    </g>
   </g>
   <g id="line2d_27">
    <path d="M 73.832727 274.228352 
L 80.45833 175.606991 
L 87.083933 116.012263 
L 93.709536 84.896433 
L 100.335139 74.876078 
L 106.960742 58.527082 
L 113.586345 56.944922 
L 120.211948 55.890149 
L 126.837551 55.890149 
L 133.463154 55.362762 
L 140.088757 55.362762 
L 146.71436 55.362762 
L 153.339963 55.362762 
L 159.965566 55.362762 
L 166.591169 55.362762 
L 173.216772 55.362762 
L 179.842375 55.362762 
L 186.467978 55.362762 
L 193.093581 55.362762 
L 199.719184 55.362762 
L 206.344787 55.362762 
L 212.97039 55.362762 
L 219.595993 55.362762 
L 226.221596 55.362762 
L 232.847199 55.362762 
L 239.472801 55.362762 
L 246.098404 55.362762 
L 252.724007 55.362762 
L 259.34961 55.362762 
L 265.975213 55.362762 
L 272.600816 55.362762 
L 279.226419 55.362762 
L 285.852022 55.362762 
L 292.477625 55.362762 
L 299.103228 55.362762 
L 305.728831 55.362762 
L 312.354434 55.362762 
L 318.980037 55.362762 
L 325.60564 55.362762 
L 332.231243 55.362762 
L 338.856846 55.362762 
L 345.482449 55.362762 
L 352.108052 55.362762 
L 358.733655 55.362762 
L 365.359258 55.362762 
L 371.984861 55.362762 
L 378.610464 55.362762 
L 385.236067 55.362762 
L 391.86167 55.362762 
L 398.487273 55.362762 
" clip-path="url(#p13620d7034)" style="fill: none; stroke-dasharray: 1.5,2.475; stroke-dashoffset: 0; stroke: #2ca02c; stroke-width: 1.5"/>
   </g>
   <g id="patch_7">
    <path d="M 57.6 307.584 
L 57.6 41.472 
" style="fill: none; stroke: #cccccc; stroke-linejoin: miter; stroke-linecap: square"/>
   </g>
   <g id="patch_8">
    <path d="M 414.72 307.584 
L 414.72 41.472 
" style="fill: none; stroke: #cccccc; stroke-linejoin: miter; stroke-linecap: square"/>
   </g>
   <g id="patch_9">
    <path d="M 57.6 307.584 
L 414.72 307.584 
" style="fill: none; stroke: #cccccc; stroke-linejoin: miter; stroke-linecap: square"/>
   </g>
   <g id="patch_10">
    <path d="M 57.6 41.472 
L 414.72 41.472 
" style="fill: none; stroke: #cccccc; stroke-linejoin: miter; stroke-linecap: square"/>
   </g>
   <g id="text_20">
    <!-- Training process -->
    <g style="fill: #262626" transform="translate(169.973437 35.472)scale(0.18 -0.18)">
     <defs>
      <path id="ArialMT-54" d="M 1659 0 
L 1659 4041 
L 150 4041 
L 150 4581 
L 3781 4581 
L 3781 4041 
L 2266 4041 
L 2266 0 
L 1659 0 
z
" transform="scale(0.015625)"/>
      <path id="ArialMT-69" d="M 425 3934 
L 425 4581 
L 988 4581 
L 988 3934 
L 425 3934 
z
M 425 0 
L 425 3319 
L 988 3319 
L 988 0 
L 425 0 
z
" transform="scale(0.015625)"/>
      <path id="ArialMT-6e" d="M 422 0 
L 422 3319 
L 928 3319 
L 928 2847 
Q 1294 3394 1984 3394 
Q 2284 3394 2536 3286 
Q 2788 3178 2913 3003 
Q 3038 2828 3088 2588 
Q 3119 2431 3119 2041 
L 3119 0 
L 2556 0 
L 2556 2019 
Q 2556 2363 2490 2533 
Q 2425 2703 2258 2804 
Q 2091 2906 1866 2906 
Q 1506 2906 1245 2678 
Q 984 2450 984 1813 
L 984 0 
L 422 0 
z
" transform="scale(0.015625)"/>
      <path id="ArialMT-67" d="M 319 -275 
L 866 -356 
Q 900 -609 1056 -725 
Q 1266 -881 1628 -881 
Q 2019 -881 2231 -725 
Q 2444 -569 2519 -288 
Q 2563 -116 2559 434 
Q 2191 0 1641 0 
Q 956 0 581 494 
Q 206 988 206 1678 
Q 206 2153 378 2554 
Q 550 2956 876 3175 
Q 1203 3394 1644 3394 
Q 2231 3394 2613 2919 
L 2613 3319 
L 3131 3319 
L 3131 450 
Q 3131 -325 2973 -648 
Q 2816 -972 2473 -1159 
Q 2131 -1347 1631 -1347 
Q 1038 -1347 672 -1080 
Q 306 -813 319 -275 
z
M 784 1719 
Q 784 1066 1043 766 
Q 1303 466 1694 466 
Q 2081 466 2343 764 
Q 2606 1063 2606 1700 
Q 2606 2309 2336 2618 
Q 2066 2928 1684 2928 
Q 1309 2928 1046 2623 
Q 784 2319 784 1719 
z
" transform="scale(0.015625)"/>
      <path id="ArialMT-20" transform="scale(0.015625)"/>
      <path id="ArialMT-65" d="M 2694 1069 
L 3275 997 
Q 3138 488 2766 206 
Q 2394 -75 1816 -75 
Q 1088 -75 661 373 
Q 234 822 234 1631 
Q 234 2469 665 2931 
Q 1097 3394 1784 3394 
Q 2450 3394 2872 2941 
Q 3294 2488 3294 1666 
Q 3294 1616 3291 1516 
L 816 1516 
Q 847 969 1125 678 
Q 1403 388 1819 388 
Q 2128 388 2347 550 
Q 2566 713 2694 1069 
z
M 847 1978 
L 2700 1978 
Q 2663 2397 2488 2606 
Q 2219 2931 1791 2931 
Q 1403 2931 1139 2672 
Q 875 2413 847 1978 
z
" transform="scale(0.015625)"/>
     </defs>
     <use xlink:href="#ArialMT-54"/>
     <use xlink:href="#ArialMT-72" x="57.333984"/>
     <use xlink:href="#ArialMT-61" x="90.634766"/>
     <use xlink:href="#ArialMT-69" x="146.25"/>
     <use xlink:href="#ArialMT-6e" x="168.466797"/>
     <use xlink:href="#ArialMT-69" x="224.082031"/>
     <use xlink:href="#ArialMT-6e" x="246.298828"/>
     <use xlink:href="#ArialMT-67" x="301.914062"/>
     <use xlink:href="#ArialMT-20" x="357.529297"/>
     <use xlink:href="#ArialMT-70" x="385.3125"/>
     <use xlink:href="#ArialMT-72" x="440.927734"/>
     <use xlink:href="#ArialMT-6f" x="474.228516"/>
     <use xlink:href="#ArialMT-63" x="529.84375"/>
     <use xlink:href="#ArialMT-65" x="579.84375"/>
     <use xlink:href="#ArialMT-73" x="635.458984"/>
     <use xlink:href="#ArialMT-73" x="685.458984"/>
    </g>
   </g>
  </g>
 </g>
 <defs>
  <clipPath id="p13620d7034">
   <rect x="57.6" y="41.472" width="357.12" height="266.112"/>
  </clipPath>
 </defs>
</svg>
