<?xml version="1.0" encoding="utf-8" standalone="no"?>
<!DOCTYPE svg PUBLIC "-//W3C//DTD SVG 1.1//EN"
  "http://www.w3.org/Graphics/SVG/1.1/DTD/svg11.dtd">
<svg xmlns:xlink="http://www.w3.org/1999/xlink" width="460.8pt" height="345.6pt" viewBox="0 0 460.8 345.6" xmlns="http://www.w3.org/2000/svg" version="1.1">
 <metadata>
  <rdf:RDF xmlns:dc="http://purl.org/dc/elements/1.1/" xmlns:cc="http://creativecommons.org/ns#" xmlns:rdf="http://www.w3.org/1999/02/22-rdf-syntax-ns#">
   <cc:Work>
    <dc:type rdf:resource="http://purl.org/dc/dcmitype/StillImage"/>
    <dc:date>2022-09-24T20:49:00.473624</dc:date>
    <dc:format>image/svg+xml</dc:format>
    <dc:creator>
     <cc:Agent>
      <dc:title>Matplotlib v3.5.1, https://matplotlib.org/</dc:title>
     </cc:Agent>
    </dc:creator>
   </cc:Work>
  </rdf:RDF>
 </metadata>
 <defs>
  <style type="text/css">*{stroke-linejoin: round; stroke-linecap: butt}</style>
 </defs>
 <g id="figure_1">
  <g id="patch_1">
   <path d="M 0 345.6 
L 460.8 345.6 
L 460.8 0 
L 0 0 
z
" style="fill: #ffffff"/>
  </g>
  <g id="axes_1">
   <g id="patch_2">
    <path d="M 57.6 307.584 
L 414.72 307.584 
L 414.72 41.472 
L 57.6 41.472 
z
" style="fill: #ffffff"/>
   </g>
   <g id="PolyCollection_1">
    <defs>
     <path id="m6583d11ea5" d="M 73.832727 -292.032 
L 73.832727 -289.705077 
L 80.45833 -284.250269 
L 87.083933 -279.68065 
L 93.709536 -274.495657 
L 100.335139 -268.7845 
L 106.960742 -262.75177 
L 113.586345 -256.495767 
L 120.211948 -249.442748 
L 126.837551 -241.422061 
L 133.463154 -232.112805 
L 140.088757 -221.701199 
L 146.71436 -210.21404 
L 153.339963 -198.390461 
L 159.965566 -186.252438 
L 166.591169 -174.298536 
L 173.216772 -162.446804 
L 179.842375 -151.115508 
L 186.467978 -140.028868 
L 193.093581 -129.508731 
L 199.719184 -119.477625 
L 206.344787 -110.369042 
L 212.97039 -102.157715 
L 219.595993 -94.931573 
L 226.221596 -88.556112 
L 232.847199 -83.141308 
L 239.472801 -78.397826 
L 246.098404 -74.416424 
L 252.724007 -70.813749 
L 259.34961 -67.789057 
L 265.975213 -65.166449 
L 272.600816 -62.913617 
L 279.226419 -61.028112 
L 285.852022 -59.449192 
L 292.477625 -58.090262 
L 299.103228 -56.95058 
L 305.728831 -55.945381 
L 312.354434 -55.100879 
L 318.980037 -54.365112 
L 325.60564 -53.719546 
L 332.231243 -53.178688 
L 338.856846 -52.725434 
L 345.482449 -52.336153 
L 352.108052 -52.004707 
L 358.733655 -51.700349 
L 365.359258 -51.407433 
L 371.984861 -51.116702 
L 378.610464 -50.844197 
L 385.236067 -50.583517 
L 391.86167 -50.341347 
L 398.487273 -50.112 
L 398.487273 -51.930625 
L 398.487273 -51.930625 
L 391.86167 -52.302237 
L 385.236067 -52.712723 
L 378.610464 -53.168228 
L 371.984861 -53.677977 
L 365.359258 -54.267755 
L 358.733655 -54.956565 
L 352.108052 -55.759811 
L 345.482449 -56.656017 
L 338.856846 -57.612584 
L 332.231243 -58.640955 
L 325.60564 -59.72362 
L 318.980037 -60.932893 
L 312.354434 -62.323435 
L 305.728831 -63.862512 
L 299.103228 -65.684149 
L 292.477625 -67.728113 
L 285.852022 -70.058603 
L 279.226419 -72.666049 
L 272.600816 -75.578021 
L 265.975213 -78.888901 
L 259.34961 -82.785238 
L 252.724007 -87.028476 
L 246.098404 -91.96607 
L 239.472801 -97.256379 
L 232.847199 -102.936309 
L 226.221596 -108.989019 
L 219.595993 -115.418005 
L 212.97039 -122.241776 
L 206.344787 -129.622245 
L 199.719184 -137.481416 
L 193.093581 -145.975859 
L 186.467978 -155.48355 
L 179.842375 -165.327126 
L 173.216772 -176.050053 
L 166.591169 -187.14877 
L 159.965566 -198.709776 
L 153.339963 -209.886707 
L 146.71436 -220.806133 
L 140.088757 -230.654524 
L 133.463154 -239.618895 
L 126.837551 -247.311838 
L 120.211948 -254.315649 
L 113.586345 -261.021856 
L 106.960742 -267.281235 
L 100.335139 -273.221421 
L 93.709536 -278.405538 
L 87.083933 -282.745122 
L 80.45833 -286.35512 
L 73.832727 -292.032 
z
" style="stroke: #d62728; stroke-opacity: 0.1"/>
    </defs>
    <g clip-path="url(#p9720e66cf1)">
     <use xlink:href="#m6583d11ea5" x="0" y="345.6" style="fill: #d62728; fill-opacity: 0.1; stroke: #d62728; stroke-opacity: 0.1"/>
    </g>
   </g>
   <g id="matplotlib.axis_1">
    <g id="xtick_1">
     <g id="line2d_1">
      <defs>
       <path id="m6339b21970" d="M 0 0 
L 0 3.5 
" style="stroke: #000000; stroke-width: 0.8"/>
      </defs>
      <g>
       <use xlink:href="#m6339b21970" x="73.832727" y="307.584" style="stroke: #000000; stroke-width: 0.8"/>
      </g>
     </g>
     <g id="text_1">
      <!-- 0 -->
      <g transform="translate(71.052259 321.741812)scale(0.1 -0.1)">
       <defs>
        <path id="ArialMT-30" d="M 266 2259 
Q 266 3072 433 3567 
Q 600 4063 929 4331 
Q 1259 4600 1759 4600 
Q 2128 4600 2406 4451 
Q 2684 4303 2865 4023 
Q 3047 3744 3150 3342 
Q 3253 2941 3253 2259 
Q 3253 1453 3087 958 
Q 2922 463 2592 192 
Q 2263 -78 1759 -78 
Q 1097 -78 719 397 
Q 266 969 266 2259 
z
M 844 2259 
Q 844 1131 1108 757 
Q 1372 384 1759 384 
Q 2147 384 2411 759 
Q 2675 1134 2675 2259 
Q 2675 3391 2411 3762 
Q 2147 4134 1753 4134 
Q 1366 4134 1134 3806 
Q 844 3388 844 2259 
z
" transform="scale(0.015625)"/>
       </defs>
       <use xlink:href="#ArialMT-30"/>
      </g>
     </g>
    </g>
    <g id="xtick_2">
     <g id="line2d_2">
      <g>
       <use xlink:href="#m6339b21970" x="138.763636" y="307.584" style="stroke: #000000; stroke-width: 0.8"/>
      </g>
     </g>
     <g id="text_2">
      <!-- 10 -->
      <g transform="translate(133.202699 321.741812)scale(0.1 -0.1)">
       <defs>
        <path id="ArialMT-31" d="M 2384 0 
L 1822 0 
L 1822 3584 
Q 1619 3391 1289 3197 
Q 959 3003 697 2906 
L 697 3450 
Q 1169 3672 1522 3987 
Q 1875 4303 2022 4600 
L 2384 4600 
L 2384 0 
z
" transform="scale(0.015625)"/>
       </defs>
       <use xlink:href="#ArialMT-31"/>
       <use xlink:href="#ArialMT-30" x="55.615234"/>
      </g>
     </g>
    </g>
    <g id="xtick_3">
     <g id="line2d_3">
      <g>
       <use xlink:href="#m6339b21970" x="203.694545" y="307.584" style="stroke: #000000; stroke-width: 0.8"/>
      </g>
     </g>
     <g id="text_3">
      <!-- 20 -->
      <g transform="translate(198.133608 321.741812)scale(0.1 -0.1)">
       <defs>
        <path id="ArialMT-32" d="M 3222 541 
L 3222 0 
L 194 0 
Q 188 203 259 391 
Q 375 700 629 1000 
Q 884 1300 1366 1694 
Q 2113 2306 2375 2664 
Q 2638 3022 2638 3341 
Q 2638 3675 2398 3904 
Q 2159 4134 1775 4134 
Q 1369 4134 1125 3890 
Q 881 3647 878 3216 
L 300 3275 
Q 359 3922 746 4261 
Q 1134 4600 1788 4600 
Q 2447 4600 2831 4234 
Q 3216 3869 3216 3328 
Q 3216 3053 3103 2787 
Q 2991 2522 2730 2228 
Q 2469 1934 1863 1422 
Q 1356 997 1212 845 
Q 1069 694 975 541 
L 3222 541 
z
" transform="scale(0.015625)"/>
       </defs>
       <use xlink:href="#ArialMT-32"/>
       <use xlink:href="#ArialMT-30" x="55.615234"/>
      </g>
     </g>
    </g>
    <g id="xtick_4">
     <g id="line2d_4">
      <g>
       <use xlink:href="#m6339b21970" x="268.625455" y="307.584" style="stroke: #000000; stroke-width: 0.8"/>
      </g>
     </g>
     <g id="text_4">
      <!-- 30 -->
      <g transform="translate(263.064517 321.741812)scale(0.1 -0.1)">
       <defs>
        <path id="ArialMT-33" d="M 269 1209 
L 831 1284 
Q 928 806 1161 595 
Q 1394 384 1728 384 
Q 2125 384 2398 659 
Q 2672 934 2672 1341 
Q 2672 1728 2419 1979 
Q 2166 2231 1775 2231 
Q 1616 2231 1378 2169 
L 1441 2663 
Q 1497 2656 1531 2656 
Q 1891 2656 2178 2843 
Q 2466 3031 2466 3422 
Q 2466 3731 2256 3934 
Q 2047 4138 1716 4138 
Q 1388 4138 1169 3931 
Q 950 3725 888 3313 
L 325 3413 
Q 428 3978 793 4289 
Q 1159 4600 1703 4600 
Q 2078 4600 2393 4439 
Q 2709 4278 2876 4000 
Q 3044 3722 3044 3409 
Q 3044 3113 2884 2869 
Q 2725 2625 2413 2481 
Q 2819 2388 3044 2092 
Q 3269 1797 3269 1353 
Q 3269 753 2831 336 
Q 2394 -81 1725 -81 
Q 1122 -81 723 278 
Q 325 638 269 1209 
z
" transform="scale(0.015625)"/>
       </defs>
       <use xlink:href="#ArialMT-33"/>
       <use xlink:href="#ArialMT-30" x="55.615234"/>
      </g>
     </g>
    </g>
    <g id="xtick_5">
     <g id="line2d_5">
      <g>
       <use xlink:href="#m6339b21970" x="333.556364" y="307.584" style="stroke: #000000; stroke-width: 0.8"/>
      </g>
     </g>
     <g id="text_5">
      <!-- 40 -->
      <g transform="translate(327.995426 321.741812)scale(0.1 -0.1)">
       <defs>
        <path id="ArialMT-34" d="M 2069 0 
L 2069 1097 
L 81 1097 
L 81 1613 
L 2172 4581 
L 2631 4581 
L 2631 1613 
L 3250 1613 
L 3250 1097 
L 2631 1097 
L 2631 0 
L 2069 0 
z
M 2069 1613 
L 2069 3678 
L 634 1613 
L 2069 1613 
z
" transform="scale(0.015625)"/>
       </defs>
       <use xlink:href="#ArialMT-34"/>
       <use xlink:href="#ArialMT-30" x="55.615234"/>
      </g>
     </g>
    </g>
    <g id="xtick_6">
     <g id="line2d_6">
      <g>
       <use xlink:href="#m6339b21970" x="398.487273" y="307.584" style="stroke: #000000; stroke-width: 0.8"/>
      </g>
     </g>
     <g id="text_6">
      <!-- 50 -->
      <g transform="translate(392.926335 321.741812)scale(0.1 -0.1)">
       <defs>
        <path id="ArialMT-35" d="M 266 1200 
L 856 1250 
Q 922 819 1161 601 
Q 1400 384 1738 384 
Q 2144 384 2425 690 
Q 2706 997 2706 1503 
Q 2706 1984 2436 2262 
Q 2166 2541 1728 2541 
Q 1456 2541 1237 2417 
Q 1019 2294 894 2097 
L 366 2166 
L 809 4519 
L 3088 4519 
L 3088 3981 
L 1259 3981 
L 1013 2750 
Q 1425 3038 1878 3038 
Q 2478 3038 2890 2622 
Q 3303 2206 3303 1553 
Q 3303 931 2941 478 
Q 2500 -78 1738 -78 
Q 1113 -78 717 272 
Q 322 622 266 1200 
z
" transform="scale(0.015625)"/>
       </defs>
       <use xlink:href="#ArialMT-35"/>
       <use xlink:href="#ArialMT-30" x="55.615234"/>
      </g>
     </g>
    </g>
    <g id="text_7">
     <!-- Epochs -->
     <g transform="translate(219.483438 334.887125)scale(0.1 -0.1)">
      <defs>
       <path id="ArialMT-45" d="M 506 0 
L 506 4581 
L 3819 4581 
L 3819 4041 
L 1113 4041 
L 1113 2638 
L 3647 2638 
L 3647 2100 
L 1113 2100 
L 1113 541 
L 3925 541 
L 3925 0 
L 506 0 
z
" transform="scale(0.015625)"/>
       <path id="ArialMT-70" d="M 422 -1272 
L 422 3319 
L 934 3319 
L 934 2888 
Q 1116 3141 1344 3267 
Q 1572 3394 1897 3394 
Q 2322 3394 2647 3175 
Q 2972 2956 3137 2557 
Q 3303 2159 3303 1684 
Q 3303 1175 3120 767 
Q 2938 359 2589 142 
Q 2241 -75 1856 -75 
Q 1575 -75 1351 44 
Q 1128 163 984 344 
L 984 -1272 
L 422 -1272 
z
M 931 1641 
Q 931 1000 1190 694 
Q 1450 388 1819 388 
Q 2194 388 2461 705 
Q 2728 1022 2728 1688 
Q 2728 2322 2467 2637 
Q 2206 2953 1844 2953 
Q 1484 2953 1207 2617 
Q 931 2281 931 1641 
z
" transform="scale(0.015625)"/>
       <path id="ArialMT-6f" d="M 213 1659 
Q 213 2581 725 3025 
Q 1153 3394 1769 3394 
Q 2453 3394 2887 2945 
Q 3322 2497 3322 1706 
Q 3322 1066 3130 698 
Q 2938 331 2570 128 
Q 2203 -75 1769 -75 
Q 1072 -75 642 372 
Q 213 819 213 1659 
z
M 791 1659 
Q 791 1022 1069 705 
Q 1347 388 1769 388 
Q 2188 388 2466 706 
Q 2744 1025 2744 1678 
Q 2744 2294 2464 2611 
Q 2184 2928 1769 2928 
Q 1347 2928 1069 2612 
Q 791 2297 791 1659 
z
" transform="scale(0.015625)"/>
       <path id="ArialMT-63" d="M 2588 1216 
L 3141 1144 
Q 3050 572 2676 248 
Q 2303 -75 1759 -75 
Q 1078 -75 664 370 
Q 250 816 250 1647 
Q 250 2184 428 2587 
Q 606 2991 970 3192 
Q 1334 3394 1763 3394 
Q 2303 3394 2647 3120 
Q 2991 2847 3088 2344 
L 2541 2259 
Q 2463 2594 2264 2762 
Q 2066 2931 1784 2931 
Q 1359 2931 1093 2626 
Q 828 2322 828 1663 
Q 828 994 1084 691 
Q 1341 388 1753 388 
Q 2084 388 2306 591 
Q 2528 794 2588 1216 
z
" transform="scale(0.015625)"/>
       <path id="ArialMT-68" d="M 422 0 
L 422 4581 
L 984 4581 
L 984 2938 
Q 1378 3394 1978 3394 
Q 2347 3394 2619 3248 
Q 2891 3103 3008 2847 
Q 3125 2591 3125 2103 
L 3125 0 
L 2563 0 
L 2563 2103 
Q 2563 2525 2380 2717 
Q 2197 2909 1863 2909 
Q 1613 2909 1392 2779 
Q 1172 2650 1078 2428 
Q 984 2206 984 1816 
L 984 0 
L 422 0 
z
" transform="scale(0.015625)"/>
       <path id="ArialMT-73" d="M 197 991 
L 753 1078 
Q 800 744 1014 566 
Q 1228 388 1613 388 
Q 2000 388 2187 545 
Q 2375 703 2375 916 
Q 2375 1106 2209 1216 
Q 2094 1291 1634 1406 
Q 1016 1563 777 1677 
Q 538 1791 414 1992 
Q 291 2194 291 2438 
Q 291 2659 392 2848 
Q 494 3038 669 3163 
Q 800 3259 1026 3326 
Q 1253 3394 1513 3394 
Q 1903 3394 2198 3281 
Q 2494 3169 2634 2976 
Q 2775 2784 2828 2463 
L 2278 2388 
Q 2241 2644 2061 2787 
Q 1881 2931 1553 2931 
Q 1166 2931 1000 2803 
Q 834 2675 834 2503 
Q 834 2394 903 2306 
Q 972 2216 1119 2156 
Q 1203 2125 1616 2013 
Q 2213 1853 2448 1751 
Q 2684 1650 2818 1456 
Q 2953 1263 2953 975 
Q 2953 694 2789 445 
Q 2625 197 2315 61 
Q 2006 -75 1616 -75 
Q 969 -75 630 194 
Q 291 463 197 991 
z
" transform="scale(0.015625)"/>
      </defs>
      <use xlink:href="#ArialMT-45"/>
      <use xlink:href="#ArialMT-70" x="66.699219"/>
      <use xlink:href="#ArialMT-6f" x="122.314453"/>
      <use xlink:href="#ArialMT-63" x="177.929688"/>
      <use xlink:href="#ArialMT-68" x="227.929688"/>
      <use xlink:href="#ArialMT-73" x="283.544922"/>
     </g>
    </g>
   </g>
   <g id="matplotlib.axis_2">
    <g id="ytick_1">
     <g id="line2d_7">
      <defs>
       <path id="med289a0a1d" d="M 0 0 
L -3.5 0 
" style="stroke: #000000; stroke-width: 0.8"/>
      </defs>
      <g>
       <use xlink:href="#med289a0a1d" x="57.6" y="301.617303" style="stroke: #000000; stroke-width: 0.8"/>
      </g>
     </g>
     <g id="text_8">
      <!-- 0.0 -->
      <g style="fill: #d62728" transform="translate(36.7 305.196209)scale(0.1 -0.1)">
       <defs>
        <path id="ArialMT-2e" d="M 581 0 
L 581 641 
L 1222 641 
L 1222 0 
L 581 0 
z
" transform="scale(0.015625)"/>
       </defs>
       <use xlink:href="#ArialMT-30"/>
       <use xlink:href="#ArialMT-2e" x="55.615234"/>
       <use xlink:href="#ArialMT-30" x="83.398438"/>
      </g>
     </g>
    </g>
    <g id="ytick_2">
     <g id="line2d_8">
      <g>
       <use xlink:href="#med289a0a1d" x="57.6" y="243.888808" style="stroke: #000000; stroke-width: 0.8"/>
      </g>
     </g>
     <g id="text_9">
      <!-- 0.5 -->
      <g style="fill: #d62728" transform="translate(36.7 247.467714)scale(0.1 -0.1)">
       <use xlink:href="#ArialMT-30"/>
       <use xlink:href="#ArialMT-2e" x="55.615234"/>
       <use xlink:href="#ArialMT-35" x="83.398438"/>
      </g>
     </g>
    </g>
    <g id="ytick_3">
     <g id="line2d_9">
      <g>
       <use xlink:href="#med289a0a1d" x="57.6" y="186.160312" style="stroke: #000000; stroke-width: 0.8"/>
      </g>
     </g>
     <g id="text_10">
      <!-- 1.0 -->
      <g style="fill: #d62728" transform="translate(36.7 189.739218)scale(0.1 -0.1)">
       <use xlink:href="#ArialMT-31"/>
       <use xlink:href="#ArialMT-2e" x="55.615234"/>
       <use xlink:href="#ArialMT-30" x="83.398438"/>
      </g>
     </g>
    </g>
    <g id="ytick_4">
     <g id="line2d_10">
      <g>
       <use xlink:href="#med289a0a1d" x="57.6" y="128.431817" style="stroke: #000000; stroke-width: 0.8"/>
      </g>
     </g>
     <g id="text_11">
      <!-- 1.5 -->
      <g style="fill: #d62728" transform="translate(36.7 132.010723)scale(0.1 -0.1)">
       <use xlink:href="#ArialMT-31"/>
       <use xlink:href="#ArialMT-2e" x="55.615234"/>
       <use xlink:href="#ArialMT-35" x="83.398438"/>
      </g>
     </g>
    </g>
    <g id="ytick_5">
     <g id="line2d_11">
      <g>
       <use xlink:href="#med289a0a1d" x="57.6" y="70.703321" style="stroke: #000000; stroke-width: 0.8"/>
      </g>
     </g>
     <g id="text_12">
      <!-- 2.0 -->
      <g style="fill: #d62728" transform="translate(36.7 74.282227)scale(0.1 -0.1)">
       <use xlink:href="#ArialMT-32"/>
       <use xlink:href="#ArialMT-2e" x="55.615234"/>
       <use xlink:href="#ArialMT-30" x="83.398438"/>
      </g>
     </g>
    </g>
    <g id="text_13">
     <!-- Loss -->
     <g style="fill: #d62728" transform="translate(30.7125 185.088937)rotate(-90)scale(0.1 -0.1)">
      <defs>
       <path id="ArialMT-4c" d="M 469 0 
L 469 4581 
L 1075 4581 
L 1075 541 
L 3331 541 
L 3331 0 
L 469 0 
z
" transform="scale(0.015625)"/>
      </defs>
      <use xlink:href="#ArialMT-4c"/>
      <use xlink:href="#ArialMT-6f" x="55.615234"/>
      <use xlink:href="#ArialMT-73" x="111.230469"/>
      <use xlink:href="#ArialMT-73" x="161.230469"/>
     </g>
    </g>
   </g>
   <g id="LineCollection_1">
    <path d="M 73.832727 55.894923 
L 73.832727 53.568 
" clip-path="url(#p9720e66cf1)" style="fill: none; stroke: #d62728; stroke-width: 1.5"/>
    <path d="M 80.45833 61.349731 
L 80.45833 59.24488 
" clip-path="url(#p9720e66cf1)" style="fill: none; stroke: #d62728; stroke-width: 1.5"/>
    <path d="M 87.083933 65.91935 
L 87.083933 62.854878 
" clip-path="url(#p9720e66cf1)" style="fill: none; stroke: #d62728; stroke-width: 1.5"/>
    <path d="M 93.709536 71.104343 
L 93.709536 67.194462 
" clip-path="url(#p9720e66cf1)" style="fill: none; stroke: #d62728; stroke-width: 1.5"/>
    <path d="M 100.335139 76.8155 
L 100.335139 72.378579 
" clip-path="url(#p9720e66cf1)" style="fill: none; stroke: #d62728; stroke-width: 1.5"/>
    <path d="M 106.960742 82.84823 
L 106.960742 78.318765 
" clip-path="url(#p9720e66cf1)" style="fill: none; stroke: #d62728; stroke-width: 1.5"/>
    <path d="M 113.586345 89.104233 
L 113.586345 84.578144 
" clip-path="url(#p9720e66cf1)" style="fill: none; stroke: #d62728; stroke-width: 1.5"/>
    <path d="M 120.211948 96.157252 
L 120.211948 91.284351 
" clip-path="url(#p9720e66cf1)" style="fill: none; stroke: #d62728; stroke-width: 1.5"/>
    <path d="M 126.837551 104.177939 
L 126.837551 98.288162 
" clip-path="url(#p9720e66cf1)" style="fill: none; stroke: #d62728; stroke-width: 1.5"/>
    <path d="M 133.463154 113.487195 
L 133.463154 105.981105 
" clip-path="url(#p9720e66cf1)" style="fill: none; stroke: #d62728; stroke-width: 1.5"/>
    <path d="M 140.088757 123.898801 
L 140.088757 114.945476 
" clip-path="url(#p9720e66cf1)" style="fill: none; stroke: #d62728; stroke-width: 1.5"/>
    <path d="M 146.71436 135.38596 
L 146.71436 124.793867 
" clip-path="url(#p9720e66cf1)" style="fill: none; stroke: #d62728; stroke-width: 1.5"/>
    <path d="M 153.339963 147.209539 
L 153.339963 135.713293 
" clip-path="url(#p9720e66cf1)" style="fill: none; stroke: #d62728; stroke-width: 1.5"/>
    <path d="M 159.965566 159.347562 
L 159.965566 146.890224 
" clip-path="url(#p9720e66cf1)" style="fill: none; stroke: #d62728; stroke-width: 1.5"/>
    <path d="M 166.591169 171.301464 
L 166.591169 158.45123 
" clip-path="url(#p9720e66cf1)" style="fill: none; stroke: #d62728; stroke-width: 1.5"/>
    <path d="M 173.216772 183.153196 
L 173.216772 169.549947 
" clip-path="url(#p9720e66cf1)" style="fill: none; stroke: #d62728; stroke-width: 1.5"/>
    <path d="M 179.842375 194.484492 
L 179.842375 180.272874 
" clip-path="url(#p9720e66cf1)" style="fill: none; stroke: #d62728; stroke-width: 1.5"/>
    <path d="M 186.467978 205.571132 
L 186.467978 190.11645 
" clip-path="url(#p9720e66cf1)" style="fill: none; stroke: #d62728; stroke-width: 1.5"/>
    <path d="M 193.093581 216.091269 
L 193.093581 199.624141 
" clip-path="url(#p9720e66cf1)" style="fill: none; stroke: #d62728; stroke-width: 1.5"/>
    <path d="M 199.719184 226.122375 
L 199.719184 208.118584 
" clip-path="url(#p9720e66cf1)" style="fill: none; stroke: #d62728; stroke-width: 1.5"/>
    <path d="M 206.344787 235.230958 
L 206.344787 215.977755 
" clip-path="url(#p9720e66cf1)" style="fill: none; stroke: #d62728; stroke-width: 1.5"/>
    <path d="M 212.97039 243.442285 
L 212.97039 223.358224 
" clip-path="url(#p9720e66cf1)" style="fill: none; stroke: #d62728; stroke-width: 1.5"/>
    <path d="M 219.595993 250.668427 
L 219.595993 230.181995 
" clip-path="url(#p9720e66cf1)" style="fill: none; stroke: #d62728; stroke-width: 1.5"/>
    <path d="M 226.221596 257.043888 
L 226.221596 236.610981 
" clip-path="url(#p9720e66cf1)" style="fill: none; stroke: #d62728; stroke-width: 1.5"/>
    <path d="M 232.847199 262.458692 
L 232.847199 242.663691 
" clip-path="url(#p9720e66cf1)" style="fill: none; stroke: #d62728; stroke-width: 1.5"/>
    <path d="M 239.472801 267.202174 
L 239.472801 248.343621 
" clip-path="url(#p9720e66cf1)" style="fill: none; stroke: #d62728; stroke-width: 1.5"/>
    <path d="M 246.098404 271.183576 
L 246.098404 253.63393 
" clip-path="url(#p9720e66cf1)" style="fill: none; stroke: #d62728; stroke-width: 1.5"/>
    <path d="M 252.724007 274.786251 
L 252.724007 258.571524 
" clip-path="url(#p9720e66cf1)" style="fill: none; stroke: #d62728; stroke-width: 1.5"/>
    <path d="M 259.34961 277.810943 
L 259.34961 262.814762 
" clip-path="url(#p9720e66cf1)" style="fill: none; stroke: #d62728; stroke-width: 1.5"/>
    <path d="M 265.975213 280.433551 
L 265.975213 266.711099 
" clip-path="url(#p9720e66cf1)" style="fill: none; stroke: #d62728; stroke-width: 1.5"/>
    <path d="M 272.600816 282.686383 
L 272.600816 270.021979 
" clip-path="url(#p9720e66cf1)" style="fill: none; stroke: #d62728; stroke-width: 1.5"/>
    <path d="M 279.226419 284.571888 
L 279.226419 272.933951 
" clip-path="url(#p9720e66cf1)" style="fill: none; stroke: #d62728; stroke-width: 1.5"/>
    <path d="M 285.852022 286.150808 
L 285.852022 275.541397 
" clip-path="url(#p9720e66cf1)" style="fill: none; stroke: #d62728; stroke-width: 1.5"/>
    <path d="M 292.477625 287.509738 
L 292.477625 277.871887 
" clip-path="url(#p9720e66cf1)" style="fill: none; stroke: #d62728; stroke-width: 1.5"/>
    <path d="M 299.103228 288.64942 
L 299.103228 279.915851 
" clip-path="url(#p9720e66cf1)" style="fill: none; stroke: #d62728; stroke-width: 1.5"/>
    <path d="M 305.728831 289.654619 
L 305.728831 281.737488 
" clip-path="url(#p9720e66cf1)" style="fill: none; stroke: #d62728; stroke-width: 1.5"/>
    <path d="M 312.354434 290.499121 
L 312.354434 283.276565 
" clip-path="url(#p9720e66cf1)" style="fill: none; stroke: #d62728; stroke-width: 1.5"/>
    <path d="M 318.980037 291.234888 
L 318.980037 284.667107 
" clip-path="url(#p9720e66cf1)" style="fill: none; stroke: #d62728; stroke-width: 1.5"/>
    <path d="M 325.60564 291.880454 
L 325.60564 285.87638 
" clip-path="url(#p9720e66cf1)" style="fill: none; stroke: #d62728; stroke-width: 1.5"/>
    <path d="M 332.231243 292.421312 
L 332.231243 286.959045 
" clip-path="url(#p9720e66cf1)" style="fill: none; stroke: #d62728; stroke-width: 1.5"/>
    <path d="M 338.856846 292.874566 
L 338.856846 287.987416 
" clip-path="url(#p9720e66cf1)" style="fill: none; stroke: #d62728; stroke-width: 1.5"/>
    <path d="M 345.482449 293.263847 
L 345.482449 288.943983 
" clip-path="url(#p9720e66cf1)" style="fill: none; stroke: #d62728; stroke-width: 1.5"/>
    <path d="M 352.108052 293.595293 
L 352.108052 289.840189 
" clip-path="url(#p9720e66cf1)" style="fill: none; stroke: #d62728; stroke-width: 1.5"/>
    <path d="M 358.733655 293.899651 
L 358.733655 290.643435 
" clip-path="url(#p9720e66cf1)" style="fill: none; stroke: #d62728; stroke-width: 1.5"/>
    <path d="M 365.359258 294.192567 
L 365.359258 291.332245 
" clip-path="url(#p9720e66cf1)" style="fill: none; stroke: #d62728; stroke-width: 1.5"/>
    <path d="M 371.984861 294.483298 
L 371.984861 291.922023 
" clip-path="url(#p9720e66cf1)" style="fill: none; stroke: #d62728; stroke-width: 1.5"/>
    <path d="M 378.610464 294.755803 
L 378.610464 292.431772 
" clip-path="url(#p9720e66cf1)" style="fill: none; stroke: #d62728; stroke-width: 1.5"/>
    <path d="M 385.236067 295.016483 
L 385.236067 292.887277 
" clip-path="url(#p9720e66cf1)" style="fill: none; stroke: #d62728; stroke-width: 1.5"/>
    <path d="M 391.86167 295.258653 
L 391.86167 293.297763 
" clip-path="url(#p9720e66cf1)" style="fill: none; stroke: #d62728; stroke-width: 1.5"/>
    <path d="M 398.487273 295.488 
L 398.487273 293.669375 
" clip-path="url(#p9720e66cf1)" style="fill: none; stroke: #d62728; stroke-width: 1.5"/>
   </g>
   <g id="line2d_12">
    <defs>
     <path id="m2210bb242f" d="M 2 0 
L -2 -0 
" style="stroke: #d62728"/>
    </defs>
    <g clip-path="url(#p9720e66cf1)">
     <use xlink:href="#m2210bb242f" x="73.832727" y="55.894923" style="fill: #d62728; stroke: #d62728"/>
     <use xlink:href="#m2210bb242f" x="80.45833" y="61.349731" style="fill: #d62728; stroke: #d62728"/>
     <use xlink:href="#m2210bb242f" x="87.083933" y="65.91935" style="fill: #d62728; stroke: #d62728"/>
     <use xlink:href="#m2210bb242f" x="93.709536" y="71.104343" style="fill: #d62728; stroke: #d62728"/>
     <use xlink:href="#m2210bb242f" x="100.335139" y="76.8155" style="fill: #d62728; stroke: #d62728"/>
     <use xlink:href="#m2210bb242f" x="106.960742" y="82.84823" style="fill: #d62728; stroke: #d62728"/>
     <use xlink:href="#m2210bb242f" x="113.586345" y="89.104233" style="fill: #d62728; stroke: #d62728"/>
     <use xlink:href="#m2210bb242f" x="120.211948" y="96.157252" style="fill: #d62728; stroke: #d62728"/>
     <use xlink:href="#m2210bb242f" x="126.837551" y="104.177939" style="fill: #d62728; stroke: #d62728"/>
     <use xlink:href="#m2210bb242f" x="133.463154" y="113.487195" style="fill: #d62728; stroke: #d62728"/>
     <use xlink:href="#m2210bb242f" x="140.088757" y="123.898801" style="fill: #d62728; stroke: #d62728"/>
     <use xlink:href="#m2210bb242f" x="146.71436" y="135.38596" style="fill: #d62728; stroke: #d62728"/>
     <use xlink:href="#m2210bb242f" x="153.339963" y="147.209539" style="fill: #d62728; stroke: #d62728"/>
     <use xlink:href="#m2210bb242f" x="159.965566" y="159.347562" style="fill: #d62728; stroke: #d62728"/>
     <use xlink:href="#m2210bb242f" x="166.591169" y="171.301464" style="fill: #d62728; stroke: #d62728"/>
     <use xlink:href="#m2210bb242f" x="173.216772" y="183.153196" style="fill: #d62728; stroke: #d62728"/>
     <use xlink:href="#m2210bb242f" x="179.842375" y="194.484492" style="fill: #d62728; stroke: #d62728"/>
     <use xlink:href="#m2210bb242f" x="186.467978" y="205.571132" style="fill: #d62728; stroke: #d62728"/>
     <use xlink:href="#m2210bb242f" x="193.093581" y="216.091269" style="fill: #d62728; stroke: #d62728"/>
     <use xlink:href="#m2210bb242f" x="199.719184" y="226.122375" style="fill: #d62728; stroke: #d62728"/>
     <use xlink:href="#m2210bb242f" x="206.344787" y="235.230958" style="fill: #d62728; stroke: #d62728"/>
     <use xlink:href="#m2210bb242f" x="212.97039" y="243.442285" style="fill: #d62728; stroke: #d62728"/>
     <use xlink:href="#m2210bb242f" x="219.595993" y="250.668427" style="fill: #d62728; stroke: #d62728"/>
     <use xlink:href="#m2210bb242f" x="226.221596" y="257.043888" style="fill: #d62728; stroke: #d62728"/>
     <use xlink:href="#m2210bb242f" x="232.847199" y="262.458692" style="fill: #d62728; stroke: #d62728"/>
     <use xlink:href="#m2210bb242f" x="239.472801" y="267.202174" style="fill: #d62728; stroke: #d62728"/>
     <use xlink:href="#m2210bb242f" x="246.098404" y="271.183576" style="fill: #d62728; stroke: #d62728"/>
     <use xlink:href="#m2210bb242f" x="252.724007" y="274.786251" style="fill: #d62728; stroke: #d62728"/>
     <use xlink:href="#m2210bb242f" x="259.34961" y="277.810943" style="fill: #d62728; stroke: #d62728"/>
     <use xlink:href="#m2210bb242f" x="265.975213" y="280.433551" style="fill: #d62728; stroke: #d62728"/>
     <use xlink:href="#m2210bb242f" x="272.600816" y="282.686383" style="fill: #d62728; stroke: #d62728"/>
     <use xlink:href="#m2210bb242f" x="279.226419" y="284.571888" style="fill: #d62728; stroke: #d62728"/>
     <use xlink:href="#m2210bb242f" x="285.852022" y="286.150808" style="fill: #d62728; stroke: #d62728"/>
     <use xlink:href="#m2210bb242f" x="292.477625" y="287.509738" style="fill: #d62728; stroke: #d62728"/>
     <use xlink:href="#m2210bb242f" x="299.103228" y="288.64942" style="fill: #d62728; stroke: #d62728"/>
     <use xlink:href="#m2210bb242f" x="305.728831" y="289.654619" style="fill: #d62728; stroke: #d62728"/>
     <use xlink:href="#m2210bb242f" x="312.354434" y="290.499121" style="fill: #d62728; stroke: #d62728"/>
     <use xlink:href="#m2210bb242f" x="318.980037" y="291.234888" style="fill: #d62728; stroke: #d62728"/>
     <use xlink:href="#m2210bb242f" x="325.60564" y="291.880454" style="fill: #d62728; stroke: #d62728"/>
     <use xlink:href="#m2210bb242f" x="332.231243" y="292.421312" style="fill: #d62728; stroke: #d62728"/>
     <use xlink:href="#m2210bb242f" x="338.856846" y="292.874566" style="fill: #d62728; stroke: #d62728"/>
     <use xlink:href="#m2210bb242f" x="345.482449" y="293.263847" style="fill: #d62728; stroke: #d62728"/>
     <use xlink:href="#m2210bb242f" x="352.108052" y="293.595293" style="fill: #d62728; stroke: #d62728"/>
     <use xlink:href="#m2210bb242f" x="358.733655" y="293.899651" style="fill: #d62728; stroke: #d62728"/>
     <use xlink:href="#m2210bb242f" x="365.359258" y="294.192567" style="fill: #d62728; stroke: #d62728"/>
     <use xlink:href="#m2210bb242f" x="371.984861" y="294.483298" style="fill: #d62728; stroke: #d62728"/>
     <use xlink:href="#m2210bb242f" x="378.610464" y="294.755803" style="fill: #d62728; stroke: #d62728"/>
     <use xlink:href="#m2210bb242f" x="385.236067" y="295.016483" style="fill: #d62728; stroke: #d62728"/>
     <use xlink:href="#m2210bb242f" x="391.86167" y="295.258653" style="fill: #d62728; stroke: #d62728"/>
     <use xlink:href="#m2210bb242f" x="398.487273" y="295.488" style="fill: #d62728; stroke: #d62728"/>
    </g>
   </g>
   <g id="line2d_13">
    <g clip-path="url(#p9720e66cf1)">
     <use xlink:href="#m2210bb242f" x="73.832727" y="53.568" style="fill: #d62728; stroke: #d62728"/>
     <use xlink:href="#m2210bb242f" x="80.45833" y="59.24488" style="fill: #d62728; stroke: #d62728"/>
     <use xlink:href="#m2210bb242f" x="87.083933" y="62.854878" style="fill: #d62728; stroke: #d62728"/>
     <use xlink:href="#m2210bb242f" x="93.709536" y="67.194462" style="fill: #d62728; stroke: #d62728"/>
     <use xlink:href="#m2210bb242f" x="100.335139" y="72.378579" style="fill: #d62728; stroke: #d62728"/>
     <use xlink:href="#m2210bb242f" x="106.960742" y="78.318765" style="fill: #d62728; stroke: #d62728"/>
     <use xlink:href="#m2210bb242f" x="113.586345" y="84.578144" style="fill: #d62728; stroke: #d62728"/>
     <use xlink:href="#m2210bb242f" x="120.211948" y="91.284351" style="fill: #d62728; stroke: #d62728"/>
     <use xlink:href="#m2210bb242f" x="126.837551" y="98.288162" style="fill: #d62728; stroke: #d62728"/>
     <use xlink:href="#m2210bb242f" x="133.463154" y="105.981105" style="fill: #d62728; stroke: #d62728"/>
     <use xlink:href="#m2210bb242f" x="140.088757" y="114.945476" style="fill: #d62728; stroke: #d62728"/>
     <use xlink:href="#m2210bb242f" x="146.71436" y="124.793867" style="fill: #d62728; stroke: #d62728"/>
     <use xlink:href="#m2210bb242f" x="153.339963" y="135.713293" style="fill: #d62728; stroke: #d62728"/>
     <use xlink:href="#m2210bb242f" x="159.965566" y="146.890224" style="fill: #d62728; stroke: #d62728"/>
     <use xlink:href="#m2210bb242f" x="166.591169" y="158.45123" style="fill: #d62728; stroke: #d62728"/>
     <use xlink:href="#m2210bb242f" x="173.216772" y="169.549947" style="fill: #d62728; stroke: #d62728"/>
     <use xlink:href="#m2210bb242f" x="179.842375" y="180.272874" style="fill: #d62728; stroke: #d62728"/>
     <use xlink:href="#m2210bb242f" x="186.467978" y="190.11645" style="fill: #d62728; stroke: #d62728"/>
     <use xlink:href="#m2210bb242f" x="193.093581" y="199.624141" style="fill: #d62728; stroke: #d62728"/>
     <use xlink:href="#m2210bb242f" x="199.719184" y="208.118584" style="fill: #d62728; stroke: #d62728"/>
     <use xlink:href="#m2210bb242f" x="206.344787" y="215.977755" style="fill: #d62728; stroke: #d62728"/>
     <use xlink:href="#m2210bb242f" x="212.97039" y="223.358224" style="fill: #d62728; stroke: #d62728"/>
     <use xlink:href="#m2210bb242f" x="219.595993" y="230.181995" style="fill: #d62728; stroke: #d62728"/>
     <use xlink:href="#m2210bb242f" x="226.221596" y="236.610981" style="fill: #d62728; stroke: #d62728"/>
     <use xlink:href="#m2210bb242f" x="232.847199" y="242.663691" style="fill: #d62728; stroke: #d62728"/>
     <use xlink:href="#m2210bb242f" x="239.472801" y="248.343621" style="fill: #d62728; stroke: #d62728"/>
     <use xlink:href="#m2210bb242f" x="246.098404" y="253.63393" style="fill: #d62728; stroke: #d62728"/>
     <use xlink:href="#m2210bb242f" x="252.724007" y="258.571524" style="fill: #d62728; stroke: #d62728"/>
     <use xlink:href="#m2210bb242f" x="259.34961" y="262.814762" style="fill: #d62728; stroke: #d62728"/>
     <use xlink:href="#m2210bb242f" x="265.975213" y="266.711099" style="fill: #d62728; stroke: #d62728"/>
     <use xlink:href="#m2210bb242f" x="272.600816" y="270.021979" style="fill: #d62728; stroke: #d62728"/>
     <use xlink:href="#m2210bb242f" x="279.226419" y="272.933951" style="fill: #d62728; stroke: #d62728"/>
     <use xlink:href="#m2210bb242f" x="285.852022" y="275.541397" style="fill: #d62728; stroke: #d62728"/>
     <use xlink:href="#m2210bb242f" x="292.477625" y="277.871887" style="fill: #d62728; stroke: #d62728"/>
     <use xlink:href="#m2210bb242f" x="299.103228" y="279.915851" style="fill: #d62728; stroke: #d62728"/>
     <use xlink:href="#m2210bb242f" x="305.728831" y="281.737488" style="fill: #d62728; stroke: #d62728"/>
     <use xlink:href="#m2210bb242f" x="312.354434" y="283.276565" style="fill: #d62728; stroke: #d62728"/>
     <use xlink:href="#m2210bb242f" x="318.980037" y="284.667107" style="fill: #d62728; stroke: #d62728"/>
     <use xlink:href="#m2210bb242f" x="325.60564" y="285.87638" style="fill: #d62728; stroke: #d62728"/>
     <use xlink:href="#m2210bb242f" x="332.231243" y="286.959045" style="fill: #d62728; stroke: #d62728"/>
     <use xlink:href="#m2210bb242f" x="338.856846" y="287.987416" style="fill: #d62728; stroke: #d62728"/>
     <use xlink:href="#m2210bb242f" x="345.482449" y="288.943983" style="fill: #d62728; stroke: #d62728"/>
     <use xlink:href="#m2210bb242f" x="352.108052" y="289.840189" style="fill: #d62728; stroke: #d62728"/>
     <use xlink:href="#m2210bb242f" x="358.733655" y="290.643435" style="fill: #d62728; stroke: #d62728"/>
     <use xlink:href="#m2210bb242f" x="365.359258" y="291.332245" style="fill: #d62728; stroke: #d62728"/>
     <use xlink:href="#m2210bb242f" x="371.984861" y="291.922023" style="fill: #d62728; stroke: #d62728"/>
     <use xlink:href="#m2210bb242f" x="378.610464" y="292.431772" style="fill: #d62728; stroke: #d62728"/>
     <use xlink:href="#m2210bb242f" x="385.236067" y="292.887277" style="fill: #d62728; stroke: #d62728"/>
     <use xlink:href="#m2210bb242f" x="391.86167" y="293.297763" style="fill: #d62728; stroke: #d62728"/>
     <use xlink:href="#m2210bb242f" x="398.487273" y="293.669375" style="fill: #d62728; stroke: #d62728"/>
    </g>
   </g>
   <g id="line2d_14">
    <path d="M 73.832727 54.731462 
L 80.45833 60.297305 
L 87.083933 64.387114 
L 93.709536 69.149403 
L 100.335139 74.59704 
L 106.960742 80.583498 
L 113.586345 86.841189 
L 120.211948 93.720802 
L 126.837551 101.233051 
L 133.463154 109.73415 
L 140.088757 119.422139 
L 146.71436 130.089913 
L 153.339963 141.461416 
L 159.965566 153.118893 
L 166.591169 164.876347 
L 173.216772 176.351571 
L 179.842375 187.378683 
L 186.467978 197.843791 
L 193.093581 207.857705 
L 199.719184 217.120479 
L 206.344787 225.604356 
L 212.97039 233.400254 
L 219.595993 240.425211 
L 226.221596 246.827434 
L 232.847199 252.561192 
L 239.472801 257.772897 
L 246.098404 262.408753 
L 252.724007 266.678888 
L 259.34961 270.312853 
L 265.975213 273.572325 
L 272.600816 276.354181 
L 279.226419 278.75292 
L 285.852022 280.846103 
L 292.477625 282.690812 
L 299.103228 284.282636 
L 305.728831 285.696054 
L 312.354434 286.887843 
L 318.980037 287.950997 
L 325.60564 288.878417 
L 332.231243 289.690179 
L 338.856846 290.430991 
L 345.482449 291.103915 
L 352.108052 291.717741 
L 358.733655 292.271543 
L 365.359258 292.762406 
L 371.984861 293.20266 
L 378.610464 293.593787 
L 385.236067 293.95188 
L 391.86167 294.278208 
L 398.487273 294.578687 
" clip-path="url(#p9720e66cf1)" style="fill: none; stroke-dasharray: 1.5,2.475; stroke-dashoffset: 0; stroke: #d62728; stroke-width: 1.5"/>
   </g>
   <g id="patch_3">
    <path d="M 57.6 307.584 
L 57.6 41.472 
" style="fill: none; stroke: #000000; stroke-width: 0.8; stroke-linejoin: miter; stroke-linecap: square"/>
   </g>
   <g id="patch_4">
    <path d="M 414.72 307.584 
L 414.72 41.472 
" style="fill: none; stroke: #000000; stroke-width: 0.8; stroke-linejoin: miter; stroke-linecap: square"/>
   </g>
   <g id="patch_5">
    <path d="M 57.6 307.584 
L 414.72 307.584 
" style="fill: none; stroke: #000000; stroke-width: 0.8; stroke-linejoin: miter; stroke-linecap: square"/>
   </g>
   <g id="patch_6">
    <path d="M 57.6 41.472 
L 414.72 41.472 
" style="fill: none; stroke: #000000; stroke-width: 0.8; stroke-linejoin: miter; stroke-linecap: square"/>
   </g>
  </g>
  <g id="axes_2">
   <g id="matplotlib.axis_3">
    <g id="ytick_6">
     <g id="line2d_15">
      <path d="M 57.6 287.717133 
L 414.72 287.717133 
" clip-path="url(#p9720e66cf1)" style="fill: none; stroke: #cccccc; stroke-width: 0.8; stroke-linecap: round"/>
     </g>
     <g id="line2d_16"/>
     <g id="text_14">
      <!-- 0.0 -->
      <g style="fill: #2ca02c" transform="translate(418.22 291.29604)scale(0.1 -0.1)">
       <use xlink:href="#ArialMT-30"/>
       <use xlink:href="#ArialMT-2e" x="55.615234"/>
       <use xlink:href="#ArialMT-30" x="83.398438"/>
      </g>
     </g>
    </g>
    <g id="ytick_7">
     <g id="line2d_17">
      <path d="M 57.6 241.091933 
L 414.72 241.091933 
" clip-path="url(#p9720e66cf1)" style="fill: none; stroke: #cccccc; stroke-width: 0.8; stroke-linecap: round"/>
     </g>
     <g id="line2d_18"/>
     <g id="text_15">
      <!-- 0.2 -->
      <g style="fill: #2ca02c" transform="translate(418.22 244.670839)scale(0.1 -0.1)">
       <use xlink:href="#ArialMT-30"/>
       <use xlink:href="#ArialMT-2e" x="55.615234"/>
       <use xlink:href="#ArialMT-32" x="83.398438"/>
      </g>
     </g>
    </g>
    <g id="ytick_8">
     <g id="line2d_19">
      <path d="M 57.6 194.466733 
L 414.72 194.466733 
" clip-path="url(#p9720e66cf1)" style="fill: none; stroke: #cccccc; stroke-width: 0.8; stroke-linecap: round"/>
     </g>
     <g id="line2d_20"/>
     <g id="text_16">
      <!-- 0.4 -->
      <g style="fill: #2ca02c" transform="translate(418.22 198.045639)scale(0.1 -0.1)">
       <use xlink:href="#ArialMT-30"/>
       <use xlink:href="#ArialMT-2e" x="55.615234"/>
       <use xlink:href="#ArialMT-34" x="83.398438"/>
      </g>
     </g>
    </g>
    <g id="ytick_9">
     <g id="line2d_21">
      <path d="M 57.6 147.841532 
L 414.72 147.841532 
" clip-path="url(#p9720e66cf1)" style="fill: none; stroke: #cccccc; stroke-width: 0.8; stroke-linecap: round"/>
     </g>
     <g id="line2d_22"/>
     <g id="text_17">
      <!-- 0.6 -->
      <g style="fill: #2ca02c" transform="translate(418.22 151.420439)scale(0.1 -0.1)">
       <defs>
        <path id="ArialMT-36" d="M 3184 3459 
L 2625 3416 
Q 2550 3747 2413 3897 
Q 2184 4138 1850 4138 
Q 1581 4138 1378 3988 
Q 1113 3794 959 3422 
Q 806 3050 800 2363 
Q 1003 2672 1297 2822 
Q 1591 2972 1913 2972 
Q 2475 2972 2870 2558 
Q 3266 2144 3266 1488 
Q 3266 1056 3080 686 
Q 2894 316 2569 119 
Q 2244 -78 1831 -78 
Q 1128 -78 684 439 
Q 241 956 241 2144 
Q 241 3472 731 4075 
Q 1159 4600 1884 4600 
Q 2425 4600 2770 4297 
Q 3116 3994 3184 3459 
z
M 888 1484 
Q 888 1194 1011 928 
Q 1134 663 1356 523 
Q 1578 384 1822 384 
Q 2178 384 2434 671 
Q 2691 959 2691 1453 
Q 2691 1928 2437 2201 
Q 2184 2475 1800 2475 
Q 1419 2475 1153 2201 
Q 888 1928 888 1484 
z
" transform="scale(0.015625)"/>
       </defs>
       <use xlink:href="#ArialMT-30"/>
       <use xlink:href="#ArialMT-2e" x="55.615234"/>
       <use xlink:href="#ArialMT-36" x="83.398438"/>
      </g>
     </g>
    </g>
    <g id="ytick_10">
     <g id="line2d_23">
      <path d="M 57.6 101.216332 
L 414.72 101.216332 
" clip-path="url(#p9720e66cf1)" style="fill: none; stroke: #cccccc; stroke-width: 0.8; stroke-linecap: round"/>
     </g>
     <g id="line2d_24"/>
     <g id="text_18">
      <!-- 0.8 -->
      <g style="fill: #2ca02c" transform="translate(418.22 104.795238)scale(0.1 -0.1)">
       <defs>
        <path id="ArialMT-38" d="M 1131 2484 
Q 781 2613 612 2850 
Q 444 3088 444 3419 
Q 444 3919 803 4259 
Q 1163 4600 1759 4600 
Q 2359 4600 2725 4251 
Q 3091 3903 3091 3403 
Q 3091 3084 2923 2848 
Q 2756 2613 2416 2484 
Q 2838 2347 3058 2040 
Q 3278 1734 3278 1309 
Q 3278 722 2862 322 
Q 2447 -78 1769 -78 
Q 1091 -78 675 323 
Q 259 725 259 1325 
Q 259 1772 486 2073 
Q 713 2375 1131 2484 
z
M 1019 3438 
Q 1019 3113 1228 2906 
Q 1438 2700 1772 2700 
Q 2097 2700 2305 2904 
Q 2513 3109 2513 3406 
Q 2513 3716 2298 3927 
Q 2084 4138 1766 4138 
Q 1444 4138 1231 3931 
Q 1019 3725 1019 3438 
z
M 838 1322 
Q 838 1081 952 856 
Q 1066 631 1291 507 
Q 1516 384 1775 384 
Q 2178 384 2440 643 
Q 2703 903 2703 1303 
Q 2703 1709 2433 1975 
Q 2163 2241 1756 2241 
Q 1359 2241 1098 1978 
Q 838 1716 838 1322 
z
" transform="scale(0.015625)"/>
       </defs>
       <use xlink:href="#ArialMT-30"/>
       <use xlink:href="#ArialMT-2e" x="55.615234"/>
       <use xlink:href="#ArialMT-38" x="83.398438"/>
      </g>
     </g>
    </g>
    <g id="ytick_11">
     <g id="line2d_25">
      <path d="M 57.6 54.591132 
L 414.72 54.591132 
" clip-path="url(#p9720e66cf1)" style="fill: none; stroke: #cccccc; stroke-width: 0.8; stroke-linecap: round"/>
     </g>
     <g id="line2d_26"/>
     <g id="text_19">
      <!-- 1.0 -->
      <g style="fill: #2ca02c" transform="translate(418.22 58.170038)scale(0.1 -0.1)">
       <use xlink:href="#ArialMT-31"/>
       <use xlink:href="#ArialMT-2e" x="55.615234"/>
       <use xlink:href="#ArialMT-30" x="83.398438"/>
      </g>
     </g>
    </g>
    <g id="text_20">
     <!-- Accuracy -->
     <g style="fill: #2ca02c" transform="translate(443.277812 195.088937)rotate(-90)scale(0.1 -0.1)">
      <defs>
       <path id="ArialMT-41" d="M -9 0 
L 1750 4581 
L 2403 4581 
L 4278 0 
L 3588 0 
L 3053 1388 
L 1138 1388 
L 634 0 
L -9 0 
z
M 1313 1881 
L 2866 1881 
L 2388 3150 
Q 2169 3728 2063 4100 
Q 1975 3659 1816 3225 
L 1313 1881 
z
" transform="scale(0.015625)"/>
       <path id="ArialMT-75" d="M 2597 0 
L 2597 488 
Q 2209 -75 1544 -75 
Q 1250 -75 995 37 
Q 741 150 617 320 
Q 494 491 444 738 
Q 409 903 409 1263 
L 409 3319 
L 972 3319 
L 972 1478 
Q 972 1038 1006 884 
Q 1059 663 1231 536 
Q 1403 409 1656 409 
Q 1909 409 2131 539 
Q 2353 669 2445 892 
Q 2538 1116 2538 1541 
L 2538 3319 
L 3100 3319 
L 3100 0 
L 2597 0 
z
" transform="scale(0.015625)"/>
       <path id="ArialMT-72" d="M 416 0 
L 416 3319 
L 922 3319 
L 922 2816 
Q 1116 3169 1280 3281 
Q 1444 3394 1641 3394 
Q 1925 3394 2219 3213 
L 2025 2691 
Q 1819 2813 1613 2813 
Q 1428 2813 1281 2702 
Q 1134 2591 1072 2394 
Q 978 2094 978 1738 
L 978 0 
L 416 0 
z
" transform="scale(0.015625)"/>
       <path id="ArialMT-61" d="M 2588 409 
Q 2275 144 1986 34 
Q 1697 -75 1366 -75 
Q 819 -75 525 192 
Q 231 459 231 875 
Q 231 1119 342 1320 
Q 453 1522 633 1644 
Q 813 1766 1038 1828 
Q 1203 1872 1538 1913 
Q 2219 1994 2541 2106 
Q 2544 2222 2544 2253 
Q 2544 2597 2384 2738 
Q 2169 2928 1744 2928 
Q 1347 2928 1158 2789 
Q 969 2650 878 2297 
L 328 2372 
Q 403 2725 575 2942 
Q 747 3159 1072 3276 
Q 1397 3394 1825 3394 
Q 2250 3394 2515 3294 
Q 2781 3194 2906 3042 
Q 3031 2891 3081 2659 
Q 3109 2516 3109 2141 
L 3109 1391 
Q 3109 606 3145 398 
Q 3181 191 3288 0 
L 2700 0 
Q 2613 175 2588 409 
z
M 2541 1666 
Q 2234 1541 1622 1453 
Q 1275 1403 1131 1340 
Q 988 1278 909 1158 
Q 831 1038 831 891 
Q 831 666 1001 516 
Q 1172 366 1500 366 
Q 1825 366 2078 508 
Q 2331 650 2450 897 
Q 2541 1088 2541 1459 
L 2541 1666 
z
" transform="scale(0.015625)"/>
       <path id="ArialMT-79" d="M 397 -1278 
L 334 -750 
Q 519 -800 656 -800 
Q 844 -800 956 -737 
Q 1069 -675 1141 -563 
Q 1194 -478 1313 -144 
Q 1328 -97 1363 -6 
L 103 3319 
L 709 3319 
L 1400 1397 
Q 1534 1031 1641 628 
Q 1738 1016 1872 1384 
L 2581 3319 
L 3144 3319 
L 1881 -56 
Q 1678 -603 1566 -809 
Q 1416 -1088 1222 -1217 
Q 1028 -1347 759 -1347 
Q 597 -1347 397 -1278 
z
" transform="scale(0.015625)"/>
      </defs>
      <use xlink:href="#ArialMT-41"/>
      <use xlink:href="#ArialMT-63" x="66.699219"/>
      <use xlink:href="#ArialMT-63" x="116.699219"/>
      <use xlink:href="#ArialMT-75" x="166.699219"/>
      <use xlink:href="#ArialMT-72" x="222.314453"/>
      <use xlink:href="#ArialMT-61" x="255.615234"/>
      <use xlink:href="#ArialMT-63" x="311.230469"/>
      <use xlink:href="#ArialMT-79" x="361.230469"/>
     </g>
    </g>
   </g>
   <g id="PolyCollection_2">
    <defs>
     <path id="m61af3526e1" d="M 73.832727 -81.195467 
L 73.832727 -50.112 
L 80.45833 -57.882867 
L 87.083933 -57.882867 
L 93.709536 -57.882867 
L 100.335139 -57.882867 
L 106.960742 -57.882867 
L 113.586345 -54.299041 
L 120.211948 -61.497814 
L 126.837551 -81.937268 
L 133.463154 -109.340325 
L 140.088757 -130.82264 
L 146.71436 -143.458039 
L 153.339963 -158.812122 
L 159.965566 -181.373632 
L 166.591169 -196.453364 
L 173.216772 -212.266109 
L 179.842375 -222.094615 
L 186.467978 -229.293481 
L 193.093581 -231.173195 
L 199.719184 -235.745599 
L 206.344787 -240.209509 
L 212.97039 -248.440267 
L 219.595993 -260.527665 
L 226.221596 -266.520931 
L 232.847199 -268.808141 
L 239.472801 -276.322723 
L 246.098404 -279.037751 
L 252.724007 -280.906742 
L 259.34961 -282.052993 
L 265.975213 -284.113791 
L 272.600816 -284.513279 
L 279.226419 -285.254445 
L 285.852022 -286.87739 
L 292.477625 -288.062709 
L 299.103228 -288.677608 
L 305.728831 -289.454695 
L 312.354434 -289.454695 
L 318.980037 -289.454695 
L 325.60564 -289.454695 
L 332.231243 -289.454695 
L 338.856846 -289.454695 
L 345.482449 -291.008868 
L 352.108052 -291.008868 
L 358.733655 -291.008868 
L 365.359258 -291.008868 
L 371.984861 -291.008868 
L 378.610464 -291.008868 
L 385.236067 -291.008868 
L 391.86167 -291.008868 
L 398.487273 -291.008868 
L 398.487273 -291.008868 
L 398.487273 -291.008868 
L 391.86167 -291.008868 
L 385.236067 -291.008868 
L 378.610464 -291.008868 
L 371.984861 -291.008868 
L 365.359258 -291.008868 
L 358.733655 -291.008868 
L 352.108052 -291.008868 
L 345.482449 -291.008868 
L 338.856846 -291.785955 
L 332.231243 -291.785955 
L 325.60564 -291.785955 
L 318.980037 -291.785955 
L 312.354434 -291.785955 
L 305.728831 -291.785955 
L 299.103228 -291.785955 
L 292.477625 -291.623768 
L 285.852022 -292.032 
L 279.226419 -291.323686 
L 272.600816 -291.287764 
L 265.975213 -290.133079 
L 259.34961 -289.862617 
L 252.724007 -286.346348 
L 246.098404 -285.106992 
L 239.472801 -283.936587 
L 232.847199 -282.903216 
L 226.221596 -282.082079 
L 219.595993 -277.973218 
L 212.97039 -272.964709 
L 206.344787 -271.870427 
L 199.719184 -269.340557 
L 193.093581 -264.587922 
L 186.467978 -255.588422 
L 179.842375 -248.799728 
L 173.216772 -245.41776 
L 166.591169 -230.147039 
L 159.965566 -218.028737 
L 153.339963 -204.84426 
L 146.71436 -187.560703 
L 140.088757 -170.666808 
L 133.463154 -144.746836 
L 126.837551 -116.199653 
L 120.211948 -90.790993 
L 113.586345 -70.014646 
L 106.960742 -57.882867 
L 100.335139 -57.882867 
L 93.709536 -57.882867 
L 87.083933 -57.882867 
L 80.45833 -57.882867 
L 73.832727 -81.195467 
z
" style="stroke: #2ca02c; stroke-opacity: 0.1"/>
    </defs>
    <g clip-path="url(#p9720e66cf1)">
     <use xlink:href="#m61af3526e1" x="0" y="345.6" style="fill: #2ca02c; fill-opacity: 0.1; stroke: #2ca02c; stroke-opacity: 0.1"/>
    </g>
   </g>
   <g id="LineCollection_2">
    <path d="M 73.832727 295.488 
L 73.832727 264.404533 
" clip-path="url(#p9720e66cf1)" style="fill: none; stroke: #2ca02c; stroke-width: 1.5"/>
    <path d="M 80.45833 287.717133 
L 80.45833 287.717133 
" clip-path="url(#p9720e66cf1)" style="fill: none; stroke: #2ca02c; stroke-width: 1.5"/>
    <path d="M 87.083933 287.717133 
L 87.083933 287.717133 
" clip-path="url(#p9720e66cf1)" style="fill: none; stroke: #2ca02c; stroke-width: 1.5"/>
    <path d="M 93.709536 287.717133 
L 93.709536 287.717133 
" clip-path="url(#p9720e66cf1)" style="fill: none; stroke: #2ca02c; stroke-width: 1.5"/>
    <path d="M 100.335139 287.717133 
L 100.335139 287.717133 
" clip-path="url(#p9720e66cf1)" style="fill: none; stroke: #2ca02c; stroke-width: 1.5"/>
    <path d="M 106.960742 287.717133 
L 106.960742 287.717133 
" clip-path="url(#p9720e66cf1)" style="fill: none; stroke: #2ca02c; stroke-width: 1.5"/>
    <path d="M 113.586345 291.300959 
L 113.586345 275.585354 
" clip-path="url(#p9720e66cf1)" style="fill: none; stroke: #2ca02c; stroke-width: 1.5"/>
    <path d="M 120.211948 284.102186 
L 120.211948 254.809007 
" clip-path="url(#p9720e66cf1)" style="fill: none; stroke: #2ca02c; stroke-width: 1.5"/>
    <path d="M 126.837551 263.662732 
L 126.837551 229.400347 
" clip-path="url(#p9720e66cf1)" style="fill: none; stroke: #2ca02c; stroke-width: 1.5"/>
    <path d="M 133.463154 236.259675 
L 133.463154 200.853164 
" clip-path="url(#p9720e66cf1)" style="fill: none; stroke: #2ca02c; stroke-width: 1.5"/>
    <path d="M 140.088757 214.77736 
L 140.088757 174.933192 
" clip-path="url(#p9720e66cf1)" style="fill: none; stroke: #2ca02c; stroke-width: 1.5"/>
    <path d="M 146.71436 202.141961 
L 146.71436 158.039297 
" clip-path="url(#p9720e66cf1)" style="fill: none; stroke: #2ca02c; stroke-width: 1.5"/>
    <path d="M 153.339963 186.787878 
L 153.339963 140.75574 
" clip-path="url(#p9720e66cf1)" style="fill: none; stroke: #2ca02c; stroke-width: 1.5"/>
    <path d="M 159.965566 164.226368 
L 159.965566 127.571263 
" clip-path="url(#p9720e66cf1)" style="fill: none; stroke: #2ca02c; stroke-width: 1.5"/>
    <path d="M 166.591169 149.146636 
L 166.591169 115.452961 
" clip-path="url(#p9720e66cf1)" style="fill: none; stroke: #2ca02c; stroke-width: 1.5"/>
    <path d="M 173.216772 133.333891 
L 173.216772 100.18224 
" clip-path="url(#p9720e66cf1)" style="fill: none; stroke: #2ca02c; stroke-width: 1.5"/>
    <path d="M 179.842375 123.505385 
L 179.842375 96.800272 
" clip-path="url(#p9720e66cf1)" style="fill: none; stroke: #2ca02c; stroke-width: 1.5"/>
    <path d="M 186.467978 116.306519 
L 186.467978 90.011578 
" clip-path="url(#p9720e66cf1)" style="fill: none; stroke: #2ca02c; stroke-width: 1.5"/>
    <path d="M 193.093581 114.426805 
L 193.093581 81.012078 
" clip-path="url(#p9720e66cf1)" style="fill: none; stroke: #2ca02c; stroke-width: 1.5"/>
    <path d="M 199.719184 109.854401 
L 199.719184 76.259443 
" clip-path="url(#p9720e66cf1)" style="fill: none; stroke: #2ca02c; stroke-width: 1.5"/>
    <path d="M 206.344787 105.390491 
L 206.344787 73.729573 
" clip-path="url(#p9720e66cf1)" style="fill: none; stroke: #2ca02c; stroke-width: 1.5"/>
    <path d="M 212.97039 97.159733 
L 212.97039 72.635291 
" clip-path="url(#p9720e66cf1)" style="fill: none; stroke: #2ca02c; stroke-width: 1.5"/>
    <path d="M 219.595993 85.072335 
L 219.595993 67.626782 
" clip-path="url(#p9720e66cf1)" style="fill: none; stroke: #2ca02c; stroke-width: 1.5"/>
    <path d="M 226.221596 79.079069 
L 226.221596 63.517921 
" clip-path="url(#p9720e66cf1)" style="fill: none; stroke: #2ca02c; stroke-width: 1.5"/>
    <path d="M 232.847199 76.791859 
L 232.847199 62.696784 
" clip-path="url(#p9720e66cf1)" style="fill: none; stroke: #2ca02c; stroke-width: 1.5"/>
    <path d="M 239.472801 69.277277 
L 239.472801 61.663413 
" clip-path="url(#p9720e66cf1)" style="fill: none; stroke: #2ca02c; stroke-width: 1.5"/>
    <path d="M 246.098404 66.562249 
L 246.098404 60.493008 
" clip-path="url(#p9720e66cf1)" style="fill: none; stroke: #2ca02c; stroke-width: 1.5"/>
    <path d="M 252.724007 64.693258 
L 252.724007 59.253652 
" clip-path="url(#p9720e66cf1)" style="fill: none; stroke: #2ca02c; stroke-width: 1.5"/>
    <path d="M 259.34961 63.547007 
L 259.34961 55.737383 
" clip-path="url(#p9720e66cf1)" style="fill: none; stroke: #2ca02c; stroke-width: 1.5"/>
    <path d="M 265.975213 61.486209 
L 265.975213 55.466921 
" clip-path="url(#p9720e66cf1)" style="fill: none; stroke: #2ca02c; stroke-width: 1.5"/>
    <path d="M 272.600816 61.086721 
L 272.600816 54.312236 
" clip-path="url(#p9720e66cf1)" style="fill: none; stroke: #2ca02c; stroke-width: 1.5"/>
    <path d="M 279.226419 60.345555 
L 279.226419 54.276314 
" clip-path="url(#p9720e66cf1)" style="fill: none; stroke: #2ca02c; stroke-width: 1.5"/>
    <path d="M 285.852022 58.72261 
L 285.852022 53.568 
" clip-path="url(#p9720e66cf1)" style="fill: none; stroke: #2ca02c; stroke-width: 1.5"/>
    <path d="M 292.477625 57.537291 
L 292.477625 53.976232 
" clip-path="url(#p9720e66cf1)" style="fill: none; stroke: #2ca02c; stroke-width: 1.5"/>
    <path d="M 299.103228 56.922392 
L 299.103228 53.814045 
" clip-path="url(#p9720e66cf1)" style="fill: none; stroke: #2ca02c; stroke-width: 1.5"/>
    <path d="M 305.728831 56.145305 
L 305.728831 53.814045 
" clip-path="url(#p9720e66cf1)" style="fill: none; stroke: #2ca02c; stroke-width: 1.5"/>
    <path d="M 312.354434 56.145305 
L 312.354434 53.814045 
" clip-path="url(#p9720e66cf1)" style="fill: none; stroke: #2ca02c; stroke-width: 1.5"/>
    <path d="M 318.980037 56.145305 
L 318.980037 53.814045 
" clip-path="url(#p9720e66cf1)" style="fill: none; stroke: #2ca02c; stroke-width: 1.5"/>
    <path d="M 325.60564 56.145305 
L 325.60564 53.814045 
" clip-path="url(#p9720e66cf1)" style="fill: none; stroke: #2ca02c; stroke-width: 1.5"/>
    <path d="M 332.231243 56.145305 
L 332.231243 53.814045 
" clip-path="url(#p9720e66cf1)" style="fill: none; stroke: #2ca02c; stroke-width: 1.5"/>
    <path d="M 338.856846 56.145305 
L 338.856846 53.814045 
" clip-path="url(#p9720e66cf1)" style="fill: none; stroke: #2ca02c; stroke-width: 1.5"/>
    <path d="M 345.482449 54.591132 
L 345.482449 54.591132 
" clip-path="url(#p9720e66cf1)" style="fill: none; stroke: #2ca02c; stroke-width: 1.5"/>
    <path d="M 352.108052 54.591132 
L 352.108052 54.591132 
" clip-path="url(#p9720e66cf1)" style="fill: none; stroke: #2ca02c; stroke-width: 1.5"/>
    <path d="M 358.733655 54.591132 
L 358.733655 54.591132 
" clip-path="url(#p9720e66cf1)" style="fill: none; stroke: #2ca02c; stroke-width: 1.5"/>
    <path d="M 365.359258 54.591132 
L 365.359258 54.591132 
" clip-path="url(#p9720e66cf1)" style="fill: none; stroke: #2ca02c; stroke-width: 1.5"/>
    <path d="M 371.984861 54.591132 
L 371.984861 54.591132 
" clip-path="url(#p9720e66cf1)" style="fill: none; stroke: #2ca02c; stroke-width: 1.5"/>
    <path d="M 378.610464 54.591132 
L 378.610464 54.591132 
" clip-path="url(#p9720e66cf1)" style="fill: none; stroke: #2ca02c; stroke-width: 1.5"/>
    <path d="M 385.236067 54.591132 
L 385.236067 54.591132 
" clip-path="url(#p9720e66cf1)" style="fill: none; stroke: #2ca02c; stroke-width: 1.5"/>
    <path d="M 391.86167 54.591132 
L 391.86167 54.591132 
" clip-path="url(#p9720e66cf1)" style="fill: none; stroke: #2ca02c; stroke-width: 1.5"/>
    <path d="M 398.487273 54.591132 
L 398.487273 54.591132 
" clip-path="url(#p9720e66cf1)" style="fill: none; stroke: #2ca02c; stroke-width: 1.5"/>
   </g>
   <g id="line2d_27">
    <defs>
     <path id="m53ae88e535" d="M 2 0 
L -2 -0 
" style="stroke: #2ca02c"/>
    </defs>
    <g clip-path="url(#p9720e66cf1)">
     <use xlink:href="#m53ae88e535" x="73.832727" y="295.488" style="fill: #2ca02c; stroke: #2ca02c"/>
     <use xlink:href="#m53ae88e535" x="80.45833" y="287.717133" style="fill: #2ca02c; stroke: #2ca02c"/>
     <use xlink:href="#m53ae88e535" x="87.083933" y="287.717133" style="fill: #2ca02c; stroke: #2ca02c"/>
     <use xlink:href="#m53ae88e535" x="93.709536" y="287.717133" style="fill: #2ca02c; stroke: #2ca02c"/>
     <use xlink:href="#m53ae88e535" x="100.335139" y="287.717133" style="fill: #2ca02c; stroke: #2ca02c"/>
     <use xlink:href="#m53ae88e535" x="106.960742" y="287.717133" style="fill: #2ca02c; stroke: #2ca02c"/>
     <use xlink:href="#m53ae88e535" x="113.586345" y="291.300959" style="fill: #2ca02c; stroke: #2ca02c"/>
     <use xlink:href="#m53ae88e535" x="120.211948" y="284.102186" style="fill: #2ca02c; stroke: #2ca02c"/>
     <use xlink:href="#m53ae88e535" x="126.837551" y="263.662732" style="fill: #2ca02c; stroke: #2ca02c"/>
     <use xlink:href="#m53ae88e535" x="133.463154" y="236.259675" style="fill: #2ca02c; stroke: #2ca02c"/>
     <use xlink:href="#m53ae88e535" x="140.088757" y="214.77736" style="fill: #2ca02c; stroke: #2ca02c"/>
     <use xlink:href="#m53ae88e535" x="146.71436" y="202.141961" style="fill: #2ca02c; stroke: #2ca02c"/>
     <use xlink:href="#m53ae88e535" x="153.339963" y="186.787878" style="fill: #2ca02c; stroke: #2ca02c"/>
     <use xlink:href="#m53ae88e535" x="159.965566" y="164.226368" style="fill: #2ca02c; stroke: #2ca02c"/>
     <use xlink:href="#m53ae88e535" x="166.591169" y="149.146636" style="fill: #2ca02c; stroke: #2ca02c"/>
     <use xlink:href="#m53ae88e535" x="173.216772" y="133.333891" style="fill: #2ca02c; stroke: #2ca02c"/>
     <use xlink:href="#m53ae88e535" x="179.842375" y="123.505385" style="fill: #2ca02c; stroke: #2ca02c"/>
     <use xlink:href="#m53ae88e535" x="186.467978" y="116.306519" style="fill: #2ca02c; stroke: #2ca02c"/>
     <use xlink:href="#m53ae88e535" x="193.093581" y="114.426805" style="fill: #2ca02c; stroke: #2ca02c"/>
     <use xlink:href="#m53ae88e535" x="199.719184" y="109.854401" style="fill: #2ca02c; stroke: #2ca02c"/>
     <use xlink:href="#m53ae88e535" x="206.344787" y="105.390491" style="fill: #2ca02c; stroke: #2ca02c"/>
     <use xlink:href="#m53ae88e535" x="212.97039" y="97.159733" style="fill: #2ca02c; stroke: #2ca02c"/>
     <use xlink:href="#m53ae88e535" x="219.595993" y="85.072335" style="fill: #2ca02c; stroke: #2ca02c"/>
     <use xlink:href="#m53ae88e535" x="226.221596" y="79.079069" style="fill: #2ca02c; stroke: #2ca02c"/>
     <use xlink:href="#m53ae88e535" x="232.847199" y="76.791859" style="fill: #2ca02c; stroke: #2ca02c"/>
     <use xlink:href="#m53ae88e535" x="239.472801" y="69.277277" style="fill: #2ca02c; stroke: #2ca02c"/>
     <use xlink:href="#m53ae88e535" x="246.098404" y="66.562249" style="fill: #2ca02c; stroke: #2ca02c"/>
     <use xlink:href="#m53ae88e535" x="252.724007" y="64.693258" style="fill: #2ca02c; stroke: #2ca02c"/>
     <use xlink:href="#m53ae88e535" x="259.34961" y="63.547007" style="fill: #2ca02c; stroke: #2ca02c"/>
     <use xlink:href="#m53ae88e535" x="265.975213" y="61.486209" style="fill: #2ca02c; stroke: #2ca02c"/>
     <use xlink:href="#m53ae88e535" x="272.600816" y="61.086721" style="fill: #2ca02c; stroke: #2ca02c"/>
     <use xlink:href="#m53ae88e535" x="279.226419" y="60.345555" style="fill: #2ca02c; stroke: #2ca02c"/>
     <use xlink:href="#m53ae88e535" x="285.852022" y="58.72261" style="fill: #2ca02c; stroke: #2ca02c"/>
     <use xlink:href="#m53ae88e535" x="292.477625" y="57.537291" style="fill: #2ca02c; stroke: #2ca02c"/>
     <use xlink:href="#m53ae88e535" x="299.103228" y="56.922392" style="fill: #2ca02c; stroke: #2ca02c"/>
     <use xlink:href="#m53ae88e535" x="305.728831" y="56.145305" style="fill: #2ca02c; stroke: #2ca02c"/>
     <use xlink:href="#m53ae88e535" x="312.354434" y="56.145305" style="fill: #2ca02c; stroke: #2ca02c"/>
     <use xlink:href="#m53ae88e535" x="318.980037" y="56.145305" style="fill: #2ca02c; stroke: #2ca02c"/>
     <use xlink:href="#m53ae88e535" x="325.60564" y="56.145305" style="fill: #2ca02c; stroke: #2ca02c"/>
     <use xlink:href="#m53ae88e535" x="332.231243" y="56.145305" style="fill: #2ca02c; stroke: #2ca02c"/>
     <use xlink:href="#m53ae88e535" x="338.856846" y="56.145305" style="fill: #2ca02c; stroke: #2ca02c"/>
     <use xlink:href="#m53ae88e535" x="345.482449" y="54.591132" style="fill: #2ca02c; stroke: #2ca02c"/>
     <use xlink:href="#m53ae88e535" x="352.108052" y="54.591132" style="fill: #2ca02c; stroke: #2ca02c"/>
     <use xlink:href="#m53ae88e535" x="358.733655" y="54.591132" style="fill: #2ca02c; stroke: #2ca02c"/>
     <use xlink:href="#m53ae88e535" x="365.359258" y="54.591132" style="fill: #2ca02c; stroke: #2ca02c"/>
     <use xlink:href="#m53ae88e535" x="371.984861" y="54.591132" style="fill: #2ca02c; stroke: #2ca02c"/>
     <use xlink:href="#m53ae88e535" x="378.610464" y="54.591132" style="fill: #2ca02c; stroke: #2ca02c"/>
     <use xlink:href="#m53ae88e535" x="385.236067" y="54.591132" style="fill: #2ca02c; stroke: #2ca02c"/>
     <use xlink:href="#m53ae88e535" x="391.86167" y="54.591132" style="fill: #2ca02c; stroke: #2ca02c"/>
     <use xlink:href="#m53ae88e535" x="398.487273" y="54.591132" style="fill: #2ca02c; stroke: #2ca02c"/>
    </g>
   </g>
   <g id="line2d_28">
    <g clip-path="url(#p9720e66cf1)">
     <use xlink:href="#m53ae88e535" x="73.832727" y="264.404533" style="fill: #2ca02c; stroke: #2ca02c"/>
     <use xlink:href="#m53ae88e535" x="80.45833" y="287.717133" style="fill: #2ca02c; stroke: #2ca02c"/>
     <use xlink:href="#m53ae88e535" x="87.083933" y="287.717133" style="fill: #2ca02c; stroke: #2ca02c"/>
     <use xlink:href="#m53ae88e535" x="93.709536" y="287.717133" style="fill: #2ca02c; stroke: #2ca02c"/>
     <use xlink:href="#m53ae88e535" x="100.335139" y="287.717133" style="fill: #2ca02c; stroke: #2ca02c"/>
     <use xlink:href="#m53ae88e535" x="106.960742" y="287.717133" style="fill: #2ca02c; stroke: #2ca02c"/>
     <use xlink:href="#m53ae88e535" x="113.586345" y="275.585354" style="fill: #2ca02c; stroke: #2ca02c"/>
     <use xlink:href="#m53ae88e535" x="120.211948" y="254.809007" style="fill: #2ca02c; stroke: #2ca02c"/>
     <use xlink:href="#m53ae88e535" x="126.837551" y="229.400347" style="fill: #2ca02c; stroke: #2ca02c"/>
     <use xlink:href="#m53ae88e535" x="133.463154" y="200.853164" style="fill: #2ca02c; stroke: #2ca02c"/>
     <use xlink:href="#m53ae88e535" x="140.088757" y="174.933192" style="fill: #2ca02c; stroke: #2ca02c"/>
     <use xlink:href="#m53ae88e535" x="146.71436" y="158.039297" style="fill: #2ca02c; stroke: #2ca02c"/>
     <use xlink:href="#m53ae88e535" x="153.339963" y="140.75574" style="fill: #2ca02c; stroke: #2ca02c"/>
     <use xlink:href="#m53ae88e535" x="159.965566" y="127.571263" style="fill: #2ca02c; stroke: #2ca02c"/>
     <use xlink:href="#m53ae88e535" x="166.591169" y="115.452961" style="fill: #2ca02c; stroke: #2ca02c"/>
     <use xlink:href="#m53ae88e535" x="173.216772" y="100.18224" style="fill: #2ca02c; stroke: #2ca02c"/>
     <use xlink:href="#m53ae88e535" x="179.842375" y="96.800272" style="fill: #2ca02c; stroke: #2ca02c"/>
     <use xlink:href="#m53ae88e535" x="186.467978" y="90.011578" style="fill: #2ca02c; stroke: #2ca02c"/>
     <use xlink:href="#m53ae88e535" x="193.093581" y="81.012078" style="fill: #2ca02c; stroke: #2ca02c"/>
     <use xlink:href="#m53ae88e535" x="199.719184" y="76.259443" style="fill: #2ca02c; stroke: #2ca02c"/>
     <use xlink:href="#m53ae88e535" x="206.344787" y="73.729573" style="fill: #2ca02c; stroke: #2ca02c"/>
     <use xlink:href="#m53ae88e535" x="212.97039" y="72.635291" style="fill: #2ca02c; stroke: #2ca02c"/>
     <use xlink:href="#m53ae88e535" x="219.595993" y="67.626782" style="fill: #2ca02c; stroke: #2ca02c"/>
     <use xlink:href="#m53ae88e535" x="226.221596" y="63.517921" style="fill: #2ca02c; stroke: #2ca02c"/>
     <use xlink:href="#m53ae88e535" x="232.847199" y="62.696784" style="fill: #2ca02c; stroke: #2ca02c"/>
     <use xlink:href="#m53ae88e535" x="239.472801" y="61.663413" style="fill: #2ca02c; stroke: #2ca02c"/>
     <use xlink:href="#m53ae88e535" x="246.098404" y="60.493008" style="fill: #2ca02c; stroke: #2ca02c"/>
     <use xlink:href="#m53ae88e535" x="252.724007" y="59.253652" style="fill: #2ca02c; stroke: #2ca02c"/>
     <use xlink:href="#m53ae88e535" x="259.34961" y="55.737383" style="fill: #2ca02c; stroke: #2ca02c"/>
     <use xlink:href="#m53ae88e535" x="265.975213" y="55.466921" style="fill: #2ca02c; stroke: #2ca02c"/>
     <use xlink:href="#m53ae88e535" x="272.600816" y="54.312236" style="fill: #2ca02c; stroke: #2ca02c"/>
     <use xlink:href="#m53ae88e535" x="279.226419" y="54.276314" style="fill: #2ca02c; stroke: #2ca02c"/>
     <use xlink:href="#m53ae88e535" x="285.852022" y="53.568" style="fill: #2ca02c; stroke: #2ca02c"/>
     <use xlink:href="#m53ae88e535" x="292.477625" y="53.976232" style="fill: #2ca02c; stroke: #2ca02c"/>
     <use xlink:href="#m53ae88e535" x="299.103228" y="53.814045" style="fill: #2ca02c; stroke: #2ca02c"/>
     <use xlink:href="#m53ae88e535" x="305.728831" y="53.814045" style="fill: #2ca02c; stroke: #2ca02c"/>
     <use xlink:href="#m53ae88e535" x="312.354434" y="53.814045" style="fill: #2ca02c; stroke: #2ca02c"/>
     <use xlink:href="#m53ae88e535" x="318.980037" y="53.814045" style="fill: #2ca02c; stroke: #2ca02c"/>
     <use xlink:href="#m53ae88e535" x="325.60564" y="53.814045" style="fill: #2ca02c; stroke: #2ca02c"/>
     <use xlink:href="#m53ae88e535" x="332.231243" y="53.814045" style="fill: #2ca02c; stroke: #2ca02c"/>
     <use xlink:href="#m53ae88e535" x="338.856846" y="53.814045" style="fill: #2ca02c; stroke: #2ca02c"/>
     <use xlink:href="#m53ae88e535" x="345.482449" y="54.591132" style="fill: #2ca02c; stroke: #2ca02c"/>
     <use xlink:href="#m53ae88e535" x="352.108052" y="54.591132" style="fill: #2ca02c; stroke: #2ca02c"/>
     <use xlink:href="#m53ae88e535" x="358.733655" y="54.591132" style="fill: #2ca02c; stroke: #2ca02c"/>
     <use xlink:href="#m53ae88e535" x="365.359258" y="54.591132" style="fill: #2ca02c; stroke: #2ca02c"/>
     <use xlink:href="#m53ae88e535" x="371.984861" y="54.591132" style="fill: #2ca02c; stroke: #2ca02c"/>
     <use xlink:href="#m53ae88e535" x="378.610464" y="54.591132" style="fill: #2ca02c; stroke: #2ca02c"/>
     <use xlink:href="#m53ae88e535" x="385.236067" y="54.591132" style="fill: #2ca02c; stroke: #2ca02c"/>
     <use xlink:href="#m53ae88e535" x="391.86167" y="54.591132" style="fill: #2ca02c; stroke: #2ca02c"/>
     <use xlink:href="#m53ae88e535" x="398.487273" y="54.591132" style="fill: #2ca02c; stroke: #2ca02c"/>
    </g>
   </g>
   <g id="line2d_29">
    <path d="M 73.832727 279.946267 
L 80.45833 287.717133 
L 87.083933 287.717133 
L 93.709536 287.717133 
L 100.335139 287.717133 
L 106.960742 287.717133 
L 113.586345 283.443157 
L 120.211948 269.455596 
L 126.837551 246.53154 
L 133.463154 218.556419 
L 140.088757 194.855276 
L 146.71436 180.090629 
L 153.339963 163.771809 
L 159.965566 145.898816 
L 166.591169 132.299799 
L 173.216772 116.758065 
L 179.842375 110.152829 
L 186.467978 103.159049 
L 193.093581 97.719442 
L 199.719184 93.056922 
L 206.344787 89.560032 
L 212.97039 84.897512 
L 219.595993 76.349558 
L 226.221596 71.298495 
L 232.847199 69.744322 
L 239.472801 65.470345 
L 246.098404 63.527628 
L 252.724007 61.973455 
L 259.34961 59.642195 
L 265.975213 58.476565 
L 272.600816 57.699478 
L 279.226419 57.310935 
L 285.852022 56.145305 
L 292.477625 55.756762 
L 299.103228 55.368218 
L 305.728831 54.979675 
L 312.354434 54.979675 
L 318.980037 54.979675 
L 325.60564 54.979675 
L 332.231243 54.979675 
L 338.856846 54.979675 
L 345.482449 54.591132 
L 352.108052 54.591132 
L 358.733655 54.591132 
L 365.359258 54.591132 
L 371.984861 54.591132 
L 378.610464 54.591132 
L 385.236067 54.591132 
L 391.86167 54.591132 
L 398.487273 54.591132 
" clip-path="url(#p9720e66cf1)" style="fill: none; stroke-dasharray: 1.5,2.475; stroke-dashoffset: 0; stroke: #2ca02c; stroke-width: 1.5"/>
   </g>
   <g id="patch_7">
    <path d="M 57.6 307.584 
L 57.6 41.472 
" style="fill: none; stroke: #cccccc; stroke-linejoin: miter; stroke-linecap: square"/>
   </g>
   <g id="patch_8">
    <path d="M 414.72 307.584 
L 414.72 41.472 
" style="fill: none; stroke: #cccccc; stroke-linejoin: miter; stroke-linecap: square"/>
   </g>
   <g id="patch_9">
    <path d="M 57.6 307.584 
L 414.72 307.584 
" style="fill: none; stroke: #cccccc; stroke-linejoin: miter; stroke-linecap: square"/>
   </g>
   <g id="patch_10">
    <path d="M 57.6 41.472 
L 414.72 41.472 
" style="fill: none; stroke: #cccccc; stroke-linejoin: miter; stroke-linecap: square"/>
   </g>
   <g id="text_21">
    <!-- Training process -->
    <g style="fill: #262626" transform="translate(192.035625 35.472)scale(0.12 -0.12)">
     <defs>
      <path id="ArialMT-54" d="M 1659 0 
L 1659 4041 
L 150 4041 
L 150 4581 
L 3781 4581 
L 3781 4041 
L 2266 4041 
L 2266 0 
L 1659 0 
z
" transform="scale(0.015625)"/>
      <path id="ArialMT-69" d="M 425 3934 
L 425 4581 
L 988 4581 
L 988 3934 
L 425 3934 
z
M 425 0 
L 425 3319 
L 988 3319 
L 988 0 
L 425 0 
z
" transform="scale(0.015625)"/>
      <path id="ArialMT-6e" d="M 422 0 
L 422 3319 
L 928 3319 
L 928 2847 
Q 1294 3394 1984 3394 
Q 2284 3394 2536 3286 
Q 2788 3178 2913 3003 
Q 3038 2828 3088 2588 
Q 3119 2431 3119 2041 
L 3119 0 
L 2556 0 
L 2556 2019 
Q 2556 2363 2490 2533 
Q 2425 2703 2258 2804 
Q 2091 2906 1866 2906 
Q 1506 2906 1245 2678 
Q 984 2450 984 1813 
L 984 0 
L 422 0 
z
" transform="scale(0.015625)"/>
      <path id="ArialMT-67" d="M 319 -275 
L 866 -356 
Q 900 -609 1056 -725 
Q 1266 -881 1628 -881 
Q 2019 -881 2231 -725 
Q 2444 -569 2519 -288 
Q 2563 -116 2559 434 
Q 2191 0 1641 0 
Q 956 0 581 494 
Q 206 988 206 1678 
Q 206 2153 378 2554 
Q 550 2956 876 3175 
Q 1203 3394 1644 3394 
Q 2231 3394 2613 2919 
L 2613 3319 
L 3131 3319 
L 3131 450 
Q 3131 -325 2973 -648 
Q 2816 -972 2473 -1159 
Q 2131 -1347 1631 -1347 
Q 1038 -1347 672 -1080 
Q 306 -813 319 -275 
z
M 784 1719 
Q 784 1066 1043 766 
Q 1303 466 1694 466 
Q 2081 466 2343 764 
Q 2606 1063 2606 1700 
Q 2606 2309 2336 2618 
Q 2066 2928 1684 2928 
Q 1309 2928 1046 2623 
Q 784 2319 784 1719 
z
" transform="scale(0.015625)"/>
      <path id="ArialMT-20" transform="scale(0.015625)"/>
      <path id="ArialMT-65" d="M 2694 1069 
L 3275 997 
Q 3138 488 2766 206 
Q 2394 -75 1816 -75 
Q 1088 -75 661 373 
Q 234 822 234 1631 
Q 234 2469 665 2931 
Q 1097 3394 1784 3394 
Q 2450 3394 2872 2941 
Q 3294 2488 3294 1666 
Q 3294 1616 3291 1516 
L 816 1516 
Q 847 969 1125 678 
Q 1403 388 1819 388 
Q 2128 388 2347 550 
Q 2566 713 2694 1069 
z
M 847 1978 
L 2700 1978 
Q 2663 2397 2488 2606 
Q 2219 2931 1791 2931 
Q 1403 2931 1139 2672 
Q 875 2413 847 1978 
z
" transform="scale(0.015625)"/>
     </defs>
     <use xlink:href="#ArialMT-54"/>
     <use xlink:href="#ArialMT-72" x="57.333984"/>
     <use xlink:href="#ArialMT-61" x="90.634766"/>
     <use xlink:href="#ArialMT-69" x="146.25"/>
     <use xlink:href="#ArialMT-6e" x="168.466797"/>
     <use xlink:href="#ArialMT-69" x="224.082031"/>
     <use xlink:href="#ArialMT-6e" x="246.298828"/>
     <use xlink:href="#ArialMT-67" x="301.914062"/>
     <use xlink:href="#ArialMT-20" x="357.529297"/>
     <use xlink:href="#ArialMT-70" x="385.3125"/>
     <use xlink:href="#ArialMT-72" x="440.927734"/>
     <use xlink:href="#ArialMT-6f" x="474.228516"/>
     <use xlink:href="#ArialMT-63" x="529.84375"/>
     <use xlink:href="#ArialMT-65" x="579.84375"/>
     <use xlink:href="#ArialMT-73" x="635.458984"/>
     <use xlink:href="#ArialMT-73" x="685.458984"/>
    </g>
   </g>
  </g>
 </g>
 <defs>
  <clipPath id="p9720e66cf1">
   <rect x="57.6" y="41.472" width="357.12" height="266.112"/>
  </clipPath>
 </defs>
</svg>
